<svg width="245" height="94" viewBox="0 0 245 94" fill="none" xmlns="http://www.w3.org/2000/svg">
<g clip-path="url(#clip0_4245_1256)">
<path d="M116.41 25.4767C118.983 24.552 121.178 24.0834 122.935 24.0834C123.733 24.0834 124.448 24.1816 125.078 24.3714C124.03 21.609 121.362 19.6445 118.232 19.6445C114.189 19.6445 110.911 22.9221 110.911 26.9653C110.911 27.0168 110.914 27.0678 110.915 27.1193C112.657 26.7156 114.469 26.1742 116.41 25.4767Z" fill="white"/>
<path d="M111.547 33.0176C112.035 33.4668 112.53 34.3226 112.114 35.8484C111.98 36.3386 112.026 36.5266 112.04 36.5671C112.096 36.5934 112.427 36.6967 113.611 36.3056C114.569 35.9891 115.767 35.4591 117.038 34.8982C118.735 34.1477 120.659 33.2976 122.372 32.808C122.891 32.6596 123.371 32.574 123.813 32.551C124.852 30.8468 125.819 29.0881 126.638 27.3297C126.395 26.7751 126.034 26.3481 125.547 26.0421C124.436 25.3401 122.026 24.8927 116.865 26.7479C114.278 27.6762 111.858 28.3527 109.567 28.7824C108.345 29.0142 107.111 29.1765 105.871 29.2684C105.188 29.3175 104.515 29.3442 103.853 29.3442C103.221 29.3442 102.598 29.3216 101.984 29.2765H102.007C101.186 29.2178 100.369 29.1179 99.5592 28.977C99.425 28.954 99.2896 28.9306 99.157 28.9052L99.1318 28.9007C99.1797 28.9941 99.2286 29.0872 99.2774 29.1807C99.2938 29.2124 99.3097 29.2442 99.3265 29.2762C100.089 30.7307 100.935 32.1716 101.819 33.5674C103.649 32.9439 109.522 31.1544 111.547 33.0176Z" fill="white"/>
<path d="M122.742 34.0968C121.119 34.5606 119.321 35.3545 117.582 36.1238C114.158 37.6376 112.171 38.4521 111.158 37.5801C110.669 37.1608 110.554 36.4568 110.817 35.4917C111.106 34.4352 110.753 34.1109 110.638 34.0043C109.485 32.943 105.372 33.8081 102.575 34.7268C103.436 36.0316 104.322 37.2869 105.192 38.4668C106.729 38.2029 108.552 38.1481 109.515 39.0558C109.954 39.4702 110.397 40.2584 110.015 41.6611C109.955 41.8797 109.945 42.0105 109.946 42.0803C110.515 42.1611 112.432 41.3125 113.719 40.7432C115.067 40.1479 116.594 39.4729 117.958 39.083C118.533 38.9185 119.051 38.8493 119.511 38.8752C120.624 37.3833 121.768 35.7609 122.862 34.065C122.82 34.0746 122.781 34.0845 122.742 34.0968Z" fill="white"/>
<path d="M118.324 40.3792C117.049 40.7433 115.631 41.3701 114.26 41.9762C112.394 42.8012 110.982 43.4252 109.997 43.4252C109.608 43.4252 109.286 43.3276 109.028 43.1063C108.597 42.7353 108.492 42.131 108.715 41.3096C108.882 40.6996 108.839 40.2711 108.59 40.036C108.171 39.6407 107.201 39.5844 106.116 39.7045C109.54 44.1999 112.501 47.3188 112.501 47.3188C112.501 47.3188 115.176 44.5018 118.38 40.3642L118.324 40.3792Z" fill="white"/>
<path d="M123.258 18.7347C123.271 18.7512 123.277 18.7452 123.303 18.7626C123.33 18.7799 123.42 18.8006 123.431 18.738C123.503 18.2888 123.355 17.8582 123.135 17.4674C122.852 16.9664 122.553 16.5921 122.102 16.2097C121.784 15.9402 121.351 15.7006 120.956 15.5275C121.377 15.565 121.775 15.7249 122.148 15.8869C122.235 15.9243 122.251 15.8569 122.249 15.8111C122.247 15.7653 122.212 15.7282 122.2 15.686C122.35 15.7932 122.456 15.8926 122.623 15.9941C122.789 16.0956 122.993 16.125 123.181 16.2352C123.368 16.3454 123.604 16.5448 123.813 16.617C124.022 16.6891 124.182 16.7332 124.384 16.805L124.394 16.8194C124.421 16.855 124.595 16.8323 124.531 16.7394C123.997 15.9519 123.579 15.2817 122.67 14.8463C121.956 14.5043 121.059 14.3055 120.245 14.48C120.241 14.4471 120.226 14.4408 120.224 14.4043C120.216 14.2285 120.607 14.2737 120.716 14.2519C121.121 14.1707 121.439 14.0084 121.78 13.7853C121.791 13.7774 121.8 13.7669 121.806 13.7547C121.812 13.7426 121.815 13.7291 121.814 13.7155C121.782 13.3628 122.159 13.5778 122.349 13.5957C122.54 13.6137 122.668 13.5865 122.848 13.5502C123.423 13.434 123.94 13.3777 124.502 13.591C124.548 13.6086 124.571 13.5838 124.592 13.5562C124.613 13.5287 124.645 13.5068 124.619 13.4745C124.314 13.0852 123.875 12.9007 123.395 12.8157C122.719 12.6959 122.261 12.574 121.521 12.7174C120.619 12.8923 119.465 13.2729 118.982 14.1812C118.953 13.8254 118.994 13.4885 119.271 13.2355C119.3 13.2097 119.286 13.1924 119.285 13.1573C119.283 13.1223 119.144 13.0412 119.183 13.0247C119.252 12.9947 119.347 13.0579 119.473 12.957C119.598 12.8561 119.751 12.6411 119.96 12.5653C120.169 12.4896 120.463 12.4581 120.685 12.3413C120.908 12.2245 121.165 12.0928 121.4 11.9928C121.413 11.9881 121.425 11.9795 121.433 11.9681C121.441 11.9566 121.445 11.9429 121.445 11.9288C121.445 11.9148 121.441 11.9011 121.433 11.8896C121.425 11.8781 121.413 11.8695 121.4 11.8649C120.408 11.4924 119.443 11.1761 118.679 12.1611C118.369 12.5631 118.158 13.032 118.061 13.5303C117.964 14.0287 117.985 14.5428 118.122 15.0316C117.733 14.7079 117.216 14.5205 116.728 14.4136C116.24 14.3067 115.817 14.1482 115.32 14.2294C114.475 14.3677 114.036 14.8523 114.306 15.7111C114.311 15.7244 114.32 15.7359 114.331 15.7442C114.343 15.7525 114.357 15.7571 114.371 15.7577C114.385 15.7582 114.399 15.7545 114.411 15.7471C114.423 15.7396 114.433 15.7288 114.439 15.7159C114.6 15.3751 114.864 15.3203 115.217 15.341C115.227 15.3418 115.237 15.3406 115.246 15.3374C115.255 15.3342 115.263 15.3291 115.27 15.3225C115.277 15.3159 115.283 15.3079 115.286 15.299C115.29 15.2901 115.292 15.2805 115.291 15.2709C115.288 15.2449 115.283 15.2191 115.277 15.1936C115.676 15.4033 116.11 15.347 116.541 15.3763C116.605 15.3808 116.625 15.3332 116.613 15.288C116.499 14.8436 116.81 15.3643 116.888 15.4452C116.966 15.526 116.999 15.5266 117.076 15.5776C116.094 15.8584 115.384 16.4792 114.837 17.3276C114.586 17.7169 114.434 18.0463 114.358 18.5254C114.281 19.0045 114.48 19.5543 114.579 20.0415C114.594 20.1155 114.695 20.1089 114.721 20.082C114.747 20.055 114.738 20.067 114.742 20.0607C114.998 19.6975 114.965 19.2402 115.059 18.8452C115.097 18.6724 115.117 18.4959 115.119 18.3188C115.113 18.2508 115.094 18.1844 115.065 18.1229C115.116 18.1529 115.201 18.2676 115.277 18.326C115.289 18.3334 115.303 18.3373 115.317 18.3373C115.332 18.3373 115.346 18.3334 115.358 18.326C115.69 18.0328 116.045 17.7438 116.305 17.3911C116.395 17.2713 116.428 17.1302 116.475 17.0236C116.488 16.9937 116.516 17.1003 116.542 17.1135C116.569 17.1266 116.602 17.1617 116.657 17.1236C116.713 17.0856 116.822 17.0368 116.888 17.0015C116.217 18.0034 115.985 19.1099 116.298 20.276C116.344 20.4473 116.415 20.5455 116.494 20.6827C116.48 20.6438 116.483 20.5533 116.49 20.5611C116.498 20.5689 116.559 20.7465 116.589 20.7617C116.618 20.777 116.628 20.7974 116.625 20.7318C116.621 20.6662 116.528 20.4922 116.529 20.3973C116.529 20.3024 116.613 20.1488 116.663 20.0775C116.828 19.843 117.023 19.7032 117.172 19.4585C117.322 19.2139 117.254 18.9967 117.127 18.753C117.219 18.789 117.314 18.819 117.41 18.8428C117.478 18.8563 117.502 18.8255 117.514 18.7829C117.596 18.4943 117.662 18.208 117.752 17.9223C117.842 17.6366 117.932 17.3635 118.119 17.1233C118.287 17.5459 118.229 17.9433 118.311 18.3933C118.393 18.8434 118.482 19.3217 118.67 19.7622C118.988 20.5021 119.365 21.137 120.02 21.6362C120.048 21.6568 120.076 21.6317 120.113 21.6362C120.149 21.6406 120.152 21.6778 120.215 21.6978C120.278 21.7179 120.375 21.6113 120.31 21.546C120.037 21.2678 120.078 20.9381 120.029 20.5907C119.999 20.3787 119.924 20.2344 119.832 20.0517C119.875 20.0418 119.917 20.0292 119.958 20.014C120.005 19.999 120.061 19.9448 120.045 19.8942C119.919 19.4965 119.783 19.1025 119.692 18.7018C119.683 18.6457 119.661 18.5925 119.628 18.5462C119.594 18.5 119.551 18.4619 119.501 18.435C119.558 18.4092 119.642 18.3667 119.692 18.3424C119.714 18.3351 119.732 18.3202 119.743 18.3005C119.754 18.2809 119.757 18.2578 119.752 18.2358C119.711 18.0861 119.635 17.9328 119.587 17.8049C119.587 17.8028 119.587 17.8031 119.587 17.8025C119.473 17.7348 119.544 17.7351 119.677 17.7645C119.66 17.6768 119.65 17.5879 119.647 17.4986C119.64 17.2722 119.778 17.1392 119.946 17.0961C120.015 17.0615 120.091 17.0464 120.168 17.0527C120.067 16.9273 119.974 16.7961 119.888 16.6598C120.002 16.741 120.124 16.8111 120.251 16.8694C120.466 16.9705 120.667 17.1016 120.846 17.2587C120.884 17.2928 120.959 17.2752 120.957 17.2123C120.954 17.1494 120.937 17.0673 120.936 17.0003C121.034 17.1314 121.114 17.2759 121.172 17.4294C121.183 17.4554 121.207 17.4593 121.236 17.462C122.169 17.524 122.701 18.0286 123.258 18.7347Z" fill="#A6F756"/>
<path d="M127.79 19.7575C127.517 19.7129 127.284 19.8 127.016 19.859C126.747 19.918 126.462 20.0207 126.248 20.1989C126.324 19.93 126.335 19.6471 126.282 19.3729C126.229 19.0987 126.112 18.8407 125.942 18.6196C125.523 18.0773 124.991 18.2515 124.445 18.4567C124.437 18.4592 124.431 18.4639 124.426 18.4702C124.422 18.4765 124.419 18.4841 124.419 18.4919C124.419 18.4996 124.422 18.5072 124.426 18.5135C124.431 18.5198 124.437 18.5246 124.445 18.527C124.575 18.5818 124.714 18.6546 124.837 18.7187C124.961 18.7828 125.122 18.8001 125.237 18.8421C125.352 18.884 125.436 19.002 125.505 19.0574C125.573 19.1128 125.624 19.0783 125.664 19.0948C125.685 19.1038 125.609 19.1484 125.608 19.1679C125.607 19.1873 125.6 19.1978 125.615 19.2107C125.768 19.3499 125.792 19.5353 125.774 19.7312C125.509 19.2314 124.874 19.0217 124.378 18.9256C123.971 18.8466 123.719 18.9139 123.347 18.9798C123.083 19.0265 122.841 19.1295 122.673 19.3422C122.659 19.3601 122.676 19.3721 122.689 19.3871C122.701 19.4021 122.713 19.417 122.738 19.4062C123.048 19.2892 123.332 19.32 123.649 19.3838C123.738 19.4069 123.831 19.4154 123.923 19.4089C124.027 19.3997 124.235 19.2814 124.217 19.4754C124.217 19.4829 124.218 19.4903 124.222 19.497C124.225 19.5037 124.23 19.5094 124.236 19.5137C124.423 19.6365 124.598 19.7261 124.821 19.7707C124.881 19.7827 125.096 19.7578 125.091 19.8542C125.091 19.8743 125.081 19.8779 125.079 19.8962C124.632 19.8 124.138 19.9093 123.745 20.0977C123.246 20.3373 123.016 20.7059 122.721 21.1392C122.687 21.1904 122.781 21.2027 122.797 21.1832C122.8 21.1793 122.801 21.1769 122.803 21.1751C122.913 21.1356 123.001 21.1116 123.116 21.0718C123.232 21.032 123.361 20.9221 123.464 20.8622C123.567 20.8023 123.68 20.7855 123.771 20.7295C123.863 20.6735 123.921 20.619 124.004 20.5601C123.997 20.5834 123.978 20.6044 123.977 20.6292C123.976 20.6541 123.985 20.6912 124.032 20.6705C124.238 20.5807 124.457 20.4942 124.688 20.4738C124.471 20.569 124.233 20.7002 124.059 20.849C123.828 21.0416 123.634 21.2763 123.49 21.5408C123.37 21.7558 123.287 21.9917 123.328 22.2397C123.333 22.2741 123.383 22.2631 123.398 22.2532C123.412 22.2433 123.415 22.2469 123.423 22.2379C123.729 21.8486 124.021 21.5719 124.533 21.5354C124.549 21.5354 124.563 21.5318 124.568 21.5177C124.6 21.4332 124.644 21.3536 124.698 21.2814C124.698 21.3183 124.688 21.3635 124.687 21.3982C124.687 21.4051 124.689 21.4117 124.693 21.4173C124.697 21.4229 124.702 21.4273 124.709 21.43C124.715 21.4327 124.722 21.4335 124.729 21.4324C124.735 21.4312 124.742 21.4282 124.747 21.4237C124.845 21.3371 124.956 21.2648 125.074 21.209C125.144 21.177 125.211 21.1384 125.274 21.0937C125.227 21.1687 125.175 21.2409 125.12 21.3099C125.162 21.3066 125.204 21.3149 125.242 21.3338C125.291 21.3446 125.335 21.3729 125.366 21.4136C125.396 21.4543 125.41 21.5046 125.406 21.5551C125.405 21.6043 125.399 21.6533 125.39 21.7016C125.462 21.6854 125.501 21.6854 125.439 21.7225C125.412 21.7929 125.37 21.8777 125.349 21.9597C125.346 21.972 125.348 21.985 125.354 21.9961C125.36 22.0071 125.37 22.0155 125.382 22.0196C125.41 22.0328 125.456 22.0564 125.487 22.0702C125.459 22.0851 125.436 22.1062 125.417 22.1316C125.399 22.1571 125.387 22.1864 125.382 22.2172C125.332 22.4376 125.257 22.6544 125.188 22.8734C125.179 22.9033 125.21 22.9332 125.236 22.9398C125.259 22.9483 125.282 22.9553 125.305 22.9608C125.255 23.0614 125.213 23.1405 125.196 23.2573C125.17 23.4486 125.192 23.6298 125.042 23.7828C125.007 23.8187 125.06 23.8777 125.094 23.8666C125.129 23.8556 125.131 23.8352 125.151 23.8325C125.17 23.8298 125.187 23.8439 125.202 23.8325C125.561 23.5579 125.771 23.2087 125.944 22.8018C126.048 22.5592 126.097 22.296 126.142 22.0486C126.188 21.8013 126.156 21.5824 126.248 21.35C126.351 21.4821 126.4 21.6324 126.45 21.7893C126.5 21.9462 126.536 22.104 126.581 22.2628C126.582 22.2691 126.584 22.2752 126.588 22.2805C126.591 22.2859 126.596 22.2903 126.601 22.2936C126.607 22.2969 126.613 22.2988 126.62 22.2993C126.626 22.2999 126.632 22.2989 126.638 22.2966C126.691 22.2833 126.743 22.2666 126.794 22.2466C126.724 22.3807 126.686 22.5002 126.769 22.6359C126.852 22.7715 126.959 22.8473 127.05 22.9764C127.077 23.0156 127.123 23.1003 127.124 23.1521C127.124 23.2039 127.073 23.3019 127.071 23.3363C127.069 23.3707 127.075 23.3606 127.091 23.3522C127.107 23.3438 127.139 23.2477 127.145 23.2417C127.151 23.2357 127.15 23.2872 127.143 23.3088C127.187 23.233 127.226 23.1791 127.251 23.0851C127.423 22.4436 127.295 21.8348 126.926 21.2835C126.963 21.303 127.023 21.3299 127.053 21.3506C127.083 21.3713 127.102 21.3521 127.116 21.3449C127.131 21.3377 127.146 21.279 127.154 21.2958C127.179 21.3557 127.198 21.4321 127.247 21.4979C127.39 21.692 127.586 21.851 127.768 22.0121C127.775 22.0162 127.782 22.0184 127.79 22.0184C127.798 22.0184 127.806 22.0162 127.813 22.0121C127.854 21.9801 127.903 21.9178 127.929 21.9004C127.913 21.9343 127.903 21.9708 127.899 22.0082C127.9 22.1056 127.911 22.2027 127.932 22.2978C127.984 22.5152 127.966 22.7667 128.107 22.9668C128.109 22.9701 128.104 22.9635 128.118 22.9785C128.133 22.9934 128.188 22.9967 128.196 22.956C128.251 22.6865 128.36 22.3846 128.318 22.122C128.276 21.8594 128.192 21.677 128.054 21.4632C127.753 20.9964 127.362 20.6547 126.822 20.5005C126.864 20.4723 126.882 20.4705 126.926 20.4277C126.97 20.3849 127.14 20.0983 127.076 20.3411C127.073 20.3471 127.072 20.3536 127.073 20.36C127.074 20.3663 127.077 20.3723 127.081 20.3773C127.085 20.3823 127.09 20.3861 127.096 20.3882C127.103 20.3904 127.109 20.3909 127.115 20.3897C127.352 20.3735 127.591 20.4037 127.81 20.2893C127.807 20.3033 127.804 20.3175 127.803 20.3319C127.803 20.3371 127.803 20.3424 127.806 20.3473C127.808 20.3522 127.811 20.3565 127.814 20.3602C127.818 20.3638 127.823 20.3666 127.828 20.3683C127.833 20.37 127.838 20.3707 127.843 20.3702C128.039 20.3588 128.184 20.3891 128.272 20.5765C128.276 20.5836 128.281 20.5896 128.288 20.5937C128.294 20.5978 128.302 20.5998 128.31 20.5995C128.318 20.5992 128.325 20.5966 128.332 20.5921C128.338 20.5875 128.343 20.5812 128.346 20.5738C128.496 20.0986 128.255 19.8321 127.79 19.7575Z" fill="#A6F756"/>
<path d="M124.621 13.4667C124.316 13.0774 123.877 12.8929 123.397 12.8079C122.721 12.6881 122.263 12.5662 121.523 12.7096C120.621 12.8845 119.467 13.2651 118.984 14.1734C118.954 13.8176 118.996 13.4807 119.273 13.2277C119.302 13.2019 119.288 13.1846 119.287 13.1495C119.285 13.1145 119.146 13.0333 119.185 13.0169C119.254 12.9869 119.349 13.0501 119.475 12.9492C119.6 12.8483 119.753 12.6333 119.962 12.5575C120.171 12.4817 120.465 12.4503 120.687 12.3335C120.91 12.2167 121.167 12.085 121.402 11.9849C121.415 11.9803 121.427 11.9717 121.435 11.9602C121.443 11.9488 121.447 11.9351 121.447 11.921C121.447 11.907 121.443 11.8932 121.435 11.8818C121.427 11.8703 121.415 11.8617 121.402 11.8571C120.41 11.4846 119.445 11.1683 118.681 12.1532C118.371 12.5553 118.159 13.0241 118.063 13.5225C117.966 14.0209 117.987 14.535 118.124 15.0238C117.735 14.7001 117.218 14.5127 116.73 14.4061C116.242 14.2994 115.819 14.1404 115.322 14.2216C114.477 14.3599 114.038 14.8445 114.308 15.7033C114.313 15.7166 114.322 15.7281 114.333 15.7364C114.345 15.7446 114.358 15.7493 114.373 15.7498C114.387 15.7504 114.401 15.7467 114.413 15.7392C114.425 15.7318 114.435 15.721 114.441 15.7081C114.602 15.3673 114.866 15.3125 115.219 15.3332C115.229 15.334 115.239 15.3327 115.248 15.3296C115.257 15.3264 115.265 15.3213 115.272 15.3147C115.279 15.3081 115.285 15.3001 115.288 15.2912C115.292 15.2823 115.294 15.2727 115.293 15.2631C115.29 15.2371 115.285 15.2113 115.279 15.1858C115.678 15.3955 116.112 15.3392 116.543 15.3685C116.607 15.373 116.626 15.3254 116.615 15.2802C116.501 14.8358 116.812 15.3565 116.89 15.4374C116.968 15.5182 117.001 15.5188 117.078 15.5697C116.096 15.8506 115.386 16.4714 114.839 17.3198C114.588 17.7091 114.436 18.0385 114.36 18.5176C114.283 18.9967 114.482 19.5465 114.581 20.0337C114.596 20.1077 114.697 20.1011 114.723 20.0742C114.749 20.0472 114.74 20.0592 114.744 20.0529C115 19.6897 114.967 19.2324 115.061 18.8374C115.099 18.6646 115.119 18.4881 115.121 18.311C115.115 18.243 115.096 18.1766 115.067 18.1151C115.118 18.1451 115.203 18.2598 115.279 18.3182C115.291 18.3256 115.305 18.3295 115.319 18.3295C115.334 18.3295 115.348 18.3256 115.36 18.3182C115.692 18.025 116.047 17.736 116.307 17.3832C116.397 17.2635 116.43 17.1224 116.476 17.0158C116.49 16.9859 116.518 17.0925 116.544 17.1057C116.571 17.1188 116.604 17.1539 116.659 17.1158C116.715 17.0778 116.824 17.029 116.89 16.9937C116.219 17.9956 115.987 19.1021 116.3 20.2682C116.346 20.4395 116.417 20.5377 116.496 20.6749C116.482 20.6359 116.485 20.5455 116.492 20.5533C116.5 20.5611 116.561 20.7387 116.591 20.7539C116.62 20.7692 116.63 20.7896 116.626 20.724C116.623 20.6584 116.53 20.4844 116.531 20.3895C116.531 20.2946 116.615 20.1409 116.665 20.0697C116.83 19.8352 117.024 19.6953 117.174 19.4507C117.324 19.206 117.256 18.9889 117.129 18.7452C117.221 18.7812 117.316 18.8112 117.412 18.835C117.48 18.8485 117.504 18.8176 117.516 18.7751C117.598 18.4864 117.664 18.2002 117.754 17.9145C117.844 17.6288 117.934 17.3557 118.121 17.1155C118.289 17.5381 118.231 17.9354 118.313 18.3855C118.395 18.8356 118.484 19.3138 118.672 19.7543C118.99 20.4943 119.367 21.1291 120.022 21.6283C120.05 21.649 120.078 21.6241 120.115 21.6283C120.151 21.6325 120.154 21.67 120.217 21.69C120.28 21.7101 120.377 21.6035 120.312 21.5382C120.039 21.26 120.08 20.9303 120.031 20.5829C120.001 20.3709 119.926 20.2266 119.834 20.0439C119.877 20.0339 119.919 20.0213 119.96 20.0062C120.007 19.9912 120.063 19.937 120.047 19.8864C119.921 19.4887 119.785 19.0946 119.694 18.694C119.685 18.6379 119.663 18.5847 119.629 18.5384C119.596 18.4922 119.553 18.4541 119.503 18.4272C119.56 18.4014 119.644 18.3589 119.694 18.3346C119.716 18.3273 119.734 18.3124 119.745 18.2927C119.756 18.2731 119.759 18.25 119.754 18.228C119.713 18.0783 119.637 17.925 119.589 17.7971C119.589 17.795 119.589 17.7953 119.589 17.7947C119.475 17.727 119.546 17.7273 119.679 17.7567C119.662 17.669 119.652 17.58 119.649 17.4908C119.642 17.2644 119.78 17.1314 119.948 17.0883C120.017 17.0537 120.093 17.0386 120.17 17.0449C120.069 16.9195 119.976 16.7883 119.89 16.652C120.004 16.7331 120.125 16.8033 120.253 16.8616C120.468 16.9627 120.669 17.0938 120.848 17.2509C120.886 17.285 120.961 17.2674 120.959 17.2045C120.956 17.1416 120.939 17.0595 120.937 16.9925C121.036 17.1236 121.116 17.2681 121.174 17.4216C121.185 17.4476 121.208 17.4515 121.238 17.4542C122.166 17.5204 122.699 18.025 123.257 18.7311C123.27 18.7476 123.275 18.7416 123.302 18.7589C123.329 18.7763 123.419 18.797 123.429 18.7344C123.502 18.2852 123.354 17.8546 123.133 17.4638C122.851 16.9628 122.552 16.5885 122.101 16.2061C121.782 15.9366 121.349 15.697 120.955 15.5239C121.376 15.5614 121.773 15.7213 122.147 15.8833C122.234 15.9207 122.25 15.8533 122.248 15.8075C122.246 15.7617 122.21 15.7246 122.199 15.6823C122.349 15.7895 122.455 15.889 122.621 15.9905C122.788 16.092 122.992 16.1213 123.179 16.2315C123.367 16.3417 123.602 16.5412 123.812 16.6133C124.021 16.6855 124.181 16.7295 124.382 16.8014L124.393 16.8158C124.42 16.8514 124.593 16.8287 124.53 16.7358C123.995 15.9483 123.577 15.2781 122.669 14.8427C121.955 14.5007 121.058 14.3018 120.243 14.4764C120.24 14.4435 120.224 14.4372 120.223 14.4007C120.215 14.2249 120.606 14.2701 120.714 14.2482C121.12 14.1671 121.438 14.0048 121.778 13.7817C121.789 13.7738 121.798 13.7633 121.804 13.7511C121.81 13.739 121.813 13.7255 121.813 13.7119C121.781 13.3592 122.157 13.5742 122.348 13.5921C122.538 13.6101 122.667 13.5828 122.846 13.5466C123.422 13.4304 123.938 13.3741 124.501 13.5873C124.547 13.605 124.57 13.5802 124.591 13.5526C124.611 13.5251 124.647 13.499 124.621 13.4667Z" fill="white"/>
<path d="M117.178 14.6055C117.178 14.6055 126.058 21.6834 118.98 29.0189L121.682 29.1474C121.682 29.1474 126.572 21.1687 117.178 14.6055Z" fill="white"/>
<path d="M122.673 19.3383C122.841 19.1244 123.082 19.0226 123.347 18.9759C123.718 18.91 123.971 18.8427 124.378 18.9217C124.874 19.0178 125.508 19.2275 125.774 19.7272C125.791 19.5314 125.768 19.346 125.615 19.2068C125.6 19.1927 125.607 19.1831 125.608 19.164C125.608 19.1448 125.685 19.0999 125.664 19.0909C125.625 19.0744 125.574 19.1092 125.504 19.0535C125.434 18.9978 125.351 18.8798 125.236 18.8382C125.121 18.7965 124.96 18.7783 124.837 18.7148C124.715 18.6513 124.574 18.5779 124.444 18.5231C124.437 18.5205 124.431 18.5157 124.426 18.5094C124.422 18.5031 124.419 18.4956 124.419 18.4879C124.419 18.4803 124.422 18.4728 124.426 18.4665C124.431 18.4602 124.437 18.4554 124.444 18.4528C124.99 18.2476 125.52 18.0733 125.941 18.6157C126.112 18.8368 126.229 19.0948 126.282 19.369C126.335 19.6432 126.323 19.9261 126.248 20.195C126.462 20.0153 126.747 19.9138 127.015 19.8551C127.284 19.7964 127.516 19.709 127.789 19.7536C128.254 19.8297 128.496 20.0962 128.348 20.5687C128.345 20.5761 128.34 20.5824 128.334 20.587C128.327 20.5915 128.32 20.5941 128.312 20.5944C128.304 20.5947 128.296 20.5927 128.289 20.5886C128.283 20.5845 128.277 20.5785 128.274 20.5714C128.184 20.384 128.041 20.3537 127.845 20.3651C127.84 20.3656 127.835 20.3649 127.83 20.3632C127.825 20.3615 127.82 20.3587 127.816 20.3551C127.813 20.3514 127.809 20.347 127.807 20.3422C127.805 20.3373 127.804 20.332 127.805 20.3268C127.806 20.3124 127.809 20.2982 127.812 20.2842C127.593 20.3986 127.354 20.3684 127.117 20.3846C127.111 20.3858 127.105 20.3853 127.098 20.3831C127.092 20.381 127.087 20.3772 127.083 20.3722C127.079 20.3672 127.076 20.3612 127.075 20.3549C127.074 20.3485 127.075 20.342 127.078 20.336C127.14 20.0917 126.969 20.378 126.928 20.4226C126.887 20.4672 126.868 20.4672 126.824 20.4954C127.363 20.6499 127.755 20.9913 128.056 21.4581C128.194 21.6719 128.278 21.8543 128.32 22.1169C128.362 22.3795 128.253 22.6829 128.198 22.9509C128.19 22.9916 128.135 22.988 128.12 22.9734C128.106 22.9587 128.111 22.965 128.109 22.9617C127.968 22.7616 127.986 22.5101 127.934 22.2927C127.913 22.1976 127.902 22.1005 127.901 22.0031C127.905 21.9657 127.915 21.9292 127.931 21.8953C127.903 21.9127 127.856 21.975 127.815 22.007C127.808 22.0111 127.8 22.0133 127.792 22.0133C127.784 22.0133 127.777 22.0111 127.77 22.007C127.588 21.8459 127.392 21.6869 127.249 21.4928C127.2 21.427 127.181 21.3494 127.156 21.2907C127.149 21.2739 127.133 21.3329 127.118 21.3398C127.104 21.3467 127.085 21.3665 127.055 21.3455C127.025 21.3245 126.965 21.2979 126.928 21.2784C127.297 21.8297 127.425 22.4385 127.253 23.08C127.228 23.174 127.189 23.2279 127.145 23.3037C127.152 23.2821 127.151 23.2324 127.147 23.2366C127.143 23.2408 127.109 23.3387 127.093 23.3471C127.076 23.3555 127.071 23.3665 127.073 23.3312C127.075 23.2959 127.126 23.1991 127.126 23.147C127.125 23.0949 127.079 23.0105 127.052 22.9713C126.962 22.8422 126.854 22.7652 126.771 22.6308C126.688 22.4963 126.726 22.3765 126.796 22.2415C126.745 22.2615 126.693 22.2782 126.64 22.2915C126.634 22.2938 126.628 22.2947 126.622 22.2942C126.615 22.2937 126.609 22.2917 126.603 22.2885C126.598 22.2852 126.593 22.2808 126.59 22.2754C126.586 22.2701 126.584 22.264 126.583 22.2577C126.538 22.0989 126.502 21.9414 126.452 21.7842C126.402 21.627 126.353 21.477 126.25 21.3449C126.158 21.5773 126.19 21.7959 126.144 22.0435C126.099 22.2912 126.05 22.5526 125.946 22.7967C125.771 23.2036 125.564 23.5528 125.204 23.8274C125.189 23.8391 125.174 23.8253 125.153 23.8274C125.132 23.8295 125.131 23.8505 125.096 23.8615C125.062 23.8726 125.009 23.8136 125.044 23.7777C125.194 23.6247 125.171 23.4435 125.198 23.2522C125.215 23.1357 125.257 23.0563 125.307 22.9557C125.284 22.9502 125.261 22.9432 125.238 22.9347C125.212 22.9266 125.181 22.8967 125.19 22.8682C125.259 22.6493 125.334 22.4325 125.384 22.2121C125.389 22.1813 125.401 22.152 125.419 22.1265C125.438 22.101 125.461 22.08 125.489 22.0651C125.459 22.0513 125.412 22.0277 125.384 22.0145C125.372 22.0104 125.362 22.002 125.356 21.991C125.35 21.9799 125.348 21.9669 125.351 21.9546C125.374 21.8726 125.416 21.7878 125.441 21.7174C125.503 21.6803 125.464 21.6803 125.392 21.6965C125.401 21.6482 125.407 21.5992 125.408 21.55C125.412 21.4995 125.398 21.4492 125.368 21.4085C125.337 21.3678 125.293 21.3395 125.244 21.3287C125.206 21.3098 125.164 21.3015 125.122 21.3048C125.177 21.2358 125.229 21.1636 125.276 21.0886C125.213 21.1333 125.146 21.1719 125.076 21.2039C124.958 21.2597 124.847 21.332 124.749 21.4186C124.744 21.4231 124.737 21.4261 124.731 21.4273C124.724 21.4284 124.717 21.4276 124.711 21.4249C124.704 21.4222 124.699 21.4178 124.695 21.4122C124.691 21.4066 124.689 21.3999 124.689 21.3931C124.689 21.3584 124.7 21.3132 124.7 21.2763C124.646 21.3485 124.602 21.4281 124.57 21.5126C124.564 21.5267 124.551 21.5291 124.535 21.5303C124.024 21.5668 123.731 21.8444 123.424 22.2328C123.417 22.2418 123.414 22.2385 123.4 22.2481C123.385 22.2577 123.335 22.269 123.33 22.2346C123.289 21.9866 123.371 21.7507 123.492 21.5357C123.637 21.2713 123.83 21.0366 124.061 20.8439C124.237 20.6942 124.475 20.5639 124.69 20.4687C124.458 20.4891 124.241 20.5771 124.034 20.6654C123.987 20.6861 123.978 20.6487 123.979 20.6241C123.98 20.5996 123.999 20.5783 124.006 20.5549C123.923 20.6148 123.865 20.6687 123.773 20.7244C123.682 20.7801 123.569 20.7966 123.466 20.8571C123.363 20.9176 123.234 21.0275 123.118 21.0667C123.003 21.1059 122.915 21.1305 122.805 21.17C122.805 21.1718 122.802 21.1742 122.799 21.1781C122.784 21.1976 122.689 21.1853 122.723 21.1341C123.018 20.7008 123.248 20.3322 123.747 20.0926C124.14 19.9042 124.634 19.7949 125.081 19.8911C125.083 19.8728 125.092 19.8692 125.093 19.8491C125.097 19.7527 124.883 19.7776 124.823 19.7656C124.6 19.721 124.425 19.6314 124.238 19.5086C124.232 19.5043 124.227 19.4986 124.224 19.4919C124.22 19.4852 124.219 19.4778 124.219 19.4703C124.237 19.2763 124.029 19.3946 123.925 19.4038C123.832 19.4103 123.74 19.4018 123.651 19.3787C123.334 19.3149 123.05 19.2841 122.74 19.4011C122.715 19.4107 122.702 19.3972 122.69 19.382C122.679 19.3667 122.659 19.3562 122.673 19.3383Z" fill="white"/>
<path d="M126.769 19.9609C126.769 19.9609 121.884 23.8539 125.778 27.8908L124.291 27.9615C124.291 27.9615 121.6 23.5718 126.769 19.9609Z" fill="white"/>
<path d="M97.7109 25.8444C97.7797 26.0106 97.8492 26.1771 97.9205 26.3439H99.047V26.7862H98.1157C98.201 26.9773 98.2884 27.1685 98.378 27.36C98.7901 27.4598 99.2054 27.5474 99.6241 27.6229V7.51172L97.624 9.06889C96.4978 11.5403 95.8623 14.507 95.8623 17.9598C95.8623 19.7688 96.2516 21.7107 96.9104 23.7024H99.047V24.1447H97.0619C97.2075 24.5618 97.364 24.981 97.5315 25.4024H99.0476V25.8447L97.7109 25.8444ZM96.6628 13.1667H99.0488V13.6092H96.6616L96.6628 13.1667ZM96.6628 14.9035H99.0488V15.3455H96.6616L96.6628 14.9035ZM96.6628 16.6017H99.0488V17.044H96.6616L96.6628 16.6017ZM96.6628 17.5435H99.0488V17.9858H96.6616L96.6628 17.5435ZM96.6628 19.2417H99.0488V19.6843H96.6616L96.6628 19.2417ZM96.6628 20.9786H99.0488V21.4209H96.6616L96.6628 20.9786ZM96.6628 22.4103V21.968H99.0488V22.4103H96.6628Z" fill="white"/>
<path d="M100.121 27.7033H101.029V27.8279C101.133 27.8402 101.239 27.8513 101.343 27.8621V27.7033H102.786V27.9681C102.927 27.974 103.068 27.9794 103.21 27.983V10.2852H99.5137V27.5982C99.7143 27.636 99.9173 27.6713 100.121 27.7033ZM102.786 27.3826H101.186V26.9394H102.786V27.3826ZM102.786 26.6196H100.495V26.1773H102.786V26.6196ZM102.786 25.8563H101.186V25.414H102.786V25.8563ZM102.786 25.0933H102.162V24.651H102.786V25.0933ZM102.786 24.3303H101.186V23.888H102.786V24.3303ZM102.786 23.5672H102.32V23.1246H102.787L102.786 23.5672ZM102.786 22.8039H100.738V22.3616H102.786V22.8039ZM102.786 22.0409H101.852V21.5986H102.786V22.0409ZM102.786 21.2779H101.186V20.8353H102.786V21.2779ZM102.786 20.5146H101.852V20.0723H102.786V20.5146ZM102.786 19.6989H101.343V19.2566H102.786V19.6989ZM102.786 18.9359H101.186V18.4948H102.786V18.9359ZM102.786 18.1725H100.495V17.7302H102.786V18.1725ZM102.786 17.4095H101.186V16.9675H102.786V17.4095ZM102.786 16.6465H102.162V16.2042H102.786V16.6465ZM102.786 15.8832H101.186V15.4403H102.786V15.8832ZM102.786 15.1202H102.32V14.6779H102.787L102.786 15.1202ZM102.786 14.3572H100.738V13.9149H102.786V14.3572ZM102.786 13.5941H101.852V13.1516H102.786V13.5941ZM102.786 12.8308H101.186V12.3885H102.786V12.8308ZM101.852 11.6255H102.786V12.0678H101.852V11.6255ZM99.938 11.6255H101.538V12.0678H99.938V11.6255ZM99.938 12.3885H100.872V12.8308H99.938V12.3885ZM99.938 13.1516H101.538V13.5941H99.938V13.1516ZM99.938 13.9149H100.424V14.3572H99.938V13.9149ZM99.938 14.6779H102.004V15.1202H99.938V14.6779ZM99.938 15.4409H100.872V15.8832H99.938V15.4409ZM99.938 16.2042H101.848V16.6465H99.938V16.2042ZM99.938 16.9672H100.872V17.4095H99.938V16.9672ZM99.938 17.7302H100.181V18.1725H99.938V17.7302ZM99.938 18.4933H100.872V18.9359H99.938V18.4933ZM99.938 19.2566H101.029V19.6989H99.938V19.2566ZM99.938 20.0723H101.538V20.5146H99.938V20.0723ZM99.938 20.8353H100.872V21.2779H99.938V20.8353ZM99.938 21.5986H101.538V22.0409H99.938V21.5986ZM99.938 22.3616H100.424V22.8039H99.938V22.3616ZM99.938 23.1246H102.004V23.5672H99.938V23.1246ZM99.938 23.888H100.872V24.3303H99.938V23.888ZM99.938 24.651H101.848V25.0933H99.938V24.651ZM99.938 25.414H100.872V25.8563H99.938V25.414ZM99.938 26.1773H100.181V26.6196H99.938V26.1773ZM99.938 26.9403H100.872V27.3826H99.938V26.9403Z" fill="white"/>
<path d="M105.752 29.2686H105.97V29.2539C105.897 29.2593 105.823 29.2635 105.752 29.2686Z" fill="white"/>
<path d="M103.888 27.9922V26.7593H104.356V27.9871C104.507 27.9841 104.658 27.9798 104.811 27.9742V26.7584H105.279V27.9523C105.508 27.9398 105.738 27.9257 105.968 27.9074V20.6094H102.274V27.9425C102.805 27.9766 103.343 27.9932 103.888 27.9922ZM104.811 21.6949H105.28V23.1212H104.811V21.6949ZM104.811 24.2271H105.28V25.6537H104.811V24.2271ZM103.888 21.6949H104.356V23.1212H103.887L103.888 21.6949ZM103.888 24.2271H104.356V25.6537H103.887L103.888 24.2271Z" fill="white"/>
<path d="M108.83 27.545V27.006H109.189V27.4803C109.315 27.4573 109.441 27.4339 109.568 27.4093V15.6641H105.871V27.9151C106.833 27.8427 107.819 27.7193 108.83 27.545ZM108.83 16.2812H109.189V16.8266H108.83V16.2812ZM108.83 17.1748H109.189V17.7201H108.83V17.1748ZM108.83 18.0684H109.189V18.6137H108.83V18.0684ZM108.83 18.9623H109.189V19.5076H108.83V18.9623ZM108.83 19.8559H109.189V20.4012H108.83V19.8559ZM108.83 20.7494H109.189V21.295H108.83V20.7494ZM108.83 21.6433H109.189V22.1886H108.83V21.6433ZM108.83 22.5369H109.189V23.0822H108.83V22.5369ZM108.83 23.4308H109.189V23.9767H108.83V23.4308ZM108.83 24.3243H109.189V24.8696H108.83V24.3243ZM108.83 25.2179H109.189V25.7632H108.83V25.2179ZM108.83 26.1118H109.189V26.6571H108.83V26.1118ZM107.54 16.2806H107.899V16.826H107.54V16.2806ZM107.54 17.1742H107.899V17.7195H107.54V17.1742ZM107.54 18.0678H107.899V18.6131H107.54V18.0678ZM107.54 18.9617H107.899V19.507H107.54V18.9617ZM107.54 19.8553H107.899V20.4006H107.54V19.8553ZM107.54 20.7488H107.899V21.2944H107.54V20.7488ZM107.54 21.6427H107.899V22.188H107.54V21.6427ZM107.54 22.5363H107.899V23.0816H107.54V22.5363ZM107.54 23.4302H107.899V23.9767H107.54V23.4302ZM107.54 24.3237H107.899V24.8691H107.54V24.3237ZM107.54 25.2173H107.899V25.7626H107.54V25.2173ZM107.54 26.1112H107.899V26.6565H107.54V26.1112ZM107.54 27.0048H107.899V27.5501H107.54V27.0048ZM106.25 16.2806H106.609V16.826H106.25V16.2806ZM106.25 17.1742H106.609V17.7195H106.25V17.1742ZM106.25 18.0678H106.609V18.6131H106.25V18.0678ZM106.25 18.9617H106.609V19.507H106.25V18.9617ZM106.25 19.8553H106.609V20.4006H106.25V19.8553ZM106.25 20.7488H106.609V21.2944H106.25V20.7488ZM106.25 21.6427H106.609V22.188H106.25V21.6427ZM106.25 22.5363H106.609V23.0816H106.25V22.5363ZM106.25 23.4302H106.609V23.9767H106.25V23.4302ZM106.25 24.3237H106.609V24.8691H106.25V24.3237ZM106.25 25.2173H106.609V25.7626H106.25V25.2173ZM106.25 26.1112H106.609V26.6565H106.25V26.1112ZM106.25 27.0048H106.609V27.5501H106.25V27.0048Z" fill="white"/>
<path d="M122.194 11.9025C122.593 11.9049 122.938 11.9687 123.302 12.0361C123.374 12.0495 123.449 12.0633 123.526 12.0771C124.258 12.2067 124.824 12.5206 125.208 13.0099C125.323 13.1574 125.382 13.3409 125.375 13.5278C125.368 13.7147 125.294 13.8929 125.168 14.0307C125.092 14.127 124.995 14.2049 124.885 14.2586C124.775 14.3123 124.654 14.3405 124.531 14.341C124.431 14.3408 124.333 14.3225 124.239 14.2871C124.067 14.2217 123.884 14.1891 123.7 14.1909C123.516 14.1947 123.332 14.2148 123.15 14.2508C124.087 14.7467 124.562 15.4487 125.064 16.1919L125.15 16.3189C125.233 16.4388 125.282 16.5791 125.291 16.7245C125.3 16.87 125.269 17.0152 125.201 17.1445C125.059 17.414 124.77 17.5814 124.447 17.5814C124.413 17.5814 124.378 17.5794 124.344 17.5754L124.314 17.5814L124.269 17.5634C124.184 17.5459 124.102 17.5148 124.027 17.4712L123.96 17.4493C124.01 17.5637 124.054 17.681 124.09 17.8006C124.12 17.7836 124.151 17.7684 124.182 17.7551C124.528 17.6254 124.869 17.5089 125.246 17.5089C125.757 17.5089 126.202 17.7338 126.532 18.1599C126.746 18.4372 126.901 18.756 126.986 19.096L127 19.0927C127.182 19.0475 127.389 18.9963 127.636 18.9963C127.728 18.9963 127.819 19.0037 127.91 19.0182C128.511 19.1164 128.811 19.4185 128.958 19.6545C128.98 19.6916 129 19.7298 129.018 19.7689C129.096 19.1695 129.136 18.5658 129.137 17.9614C129.137 6.12598 121.688 0 112.499 0C106.597 0 101.414 2.52771 98.46 7.47144L100.37 5.98344V9.54068H103.956V9.60716C105.899 7.16779 108.893 5.60253 112.255 5.60253C116.271 5.60253 119.766 7.83528 121.568 11.1272L121.665 11.1616C121.817 11.2181 121.949 11.3188 122.043 11.4509C122.137 11.583 122.19 11.7403 122.194 11.9025Z" fill="white"/>
<path d="M112.009 11.1919L109.443 12.0475L109.623 12.4985C109.627 12.5101 109.628 12.5229 109.626 12.5351C109.623 12.5473 109.616 12.5583 109.607 12.5666C109.597 12.5748 109.585 12.5799 109.573 12.581C109.56 12.5822 109.548 12.5794 109.537 12.573L108.831 12.1697H108.465V11.9253L107.609 11.4366C107.679 11.3671 107.769 11.3233 107.867 11.3124C107.964 11.3015 108.063 11.3242 108.145 11.3767L108.526 11.619L108.609 10.7838C108.612 10.7534 108.624 10.7247 108.644 10.7013C108.664 10.678 108.69 10.6611 108.719 10.6528C108.749 10.6446 108.78 10.6455 108.809 10.6553C108.838 10.665 108.863 10.6833 108.881 10.7077L109.381 11.3746L111.336 10.1525L110.481 10.3969L107.67 8.80977L107.838 8.70915C107.978 8.62542 108.133 8.57183 108.295 8.55182C108.456 8.53181 108.62 8.54582 108.776 8.59296L112.314 9.66502L114.27 8.68729C114.27 8.68729 114.758 8.56511 115.003 8.80977C115.003 8.80977 115.736 8.93195 115.492 9.29848C115.247 9.66502 113.658 10.5206 113.658 10.5206L115.492 12.4754V13.0863L112.009 11.1919Z" fill="white"/>
</g>
<path d="M4.84189 74.5983V82.1172H2.43267V63.4524H8.36306C10.4987 63.4524 12.096 63.9554 13.155 64.9614C14.214 65.9498 14.7435 67.3089 14.7435 69.0386C14.7435 70.7859 14.1964 72.1538 13.1021 73.1422C12.0078 74.1129 10.4281 74.5983 8.36306 74.5983H4.84189ZM8.15126 72.5862C9.61621 72.5862 10.6664 72.2773 11.3018 71.6596C11.9548 71.0418 12.2814 70.1682 12.2814 69.0386C12.2814 67.8737 11.9548 66.9912 11.3018 66.3911C10.6664 65.7733 9.61621 65.4644 8.15126 65.4644H4.84189V72.5862H8.15126ZM20.761 63.4524V82.1172H18.3518V63.4524H20.761ZM39.9369 82.1172H37.5277L27.8379 67.3706V82.1172H25.4286V63.4524H27.8379L37.5277 78.2254V63.4524H39.9369V82.1172ZM60.3315 72.7715C60.3315 74.6601 59.952 76.3103 59.1931 77.7223C58.4341 79.1167 57.3134 80.2022 55.8308 80.9788C54.3658 81.7377 52.6008 82.1172 50.5358 82.1172H44.6054V63.4524H50.5358C52.6008 63.4524 54.3658 63.8318 55.8308 64.5908C57.3134 65.3321 58.4341 66.4087 59.1931 67.8207C59.952 69.2151 60.3315 70.8653 60.3315 72.7715ZM50.3505 79.9462C52.7862 79.9462 54.6482 79.3197 55.9367 78.0665C57.2251 76.8134 57.8693 75.0484 57.8693 72.7715C57.8693 70.4947 57.2251 68.7297 55.9367 67.4765C54.6659 66.2057 52.8038 65.5703 50.3505 65.5703H47.0146V79.9462H50.3505ZM74.2784 82.1172L69.407 74.4924H66.786V82.1172H64.3768V63.4524H70.519C72.637 63.4524 74.2255 63.9642 75.2845 64.9879C76.3435 65.9939 76.873 67.3353 76.873 69.0121C76.873 70.53 76.4494 71.7567 75.6022 72.6921C74.755 73.6099 73.5283 74.1835 71.9222 74.413L77.0053 82.1172H74.2784ZM66.786 72.7451H70.3072C73.0429 72.7451 74.4108 71.5449 74.4108 69.1445C74.4108 66.7441 73.0429 65.5439 70.3072 65.5439H66.786V72.7451ZM89.1576 63.2141C90.8873 63.2141 92.4404 63.62 93.8171 64.4319C95.2115 65.2438 96.3058 66.3822 97.1 67.8472C97.8943 69.2945 98.2914 70.9359 98.2914 72.7715C98.2914 74.6071 97.8943 76.2574 97.1 77.7223C96.3058 79.1696 95.2115 80.2992 93.8171 81.1111C92.4404 81.923 90.8873 82.329 89.1576 82.329C87.4279 82.329 85.857 81.923 84.445 81.1111C83.0507 80.2992 81.9564 79.1696 81.1621 77.7223C80.3679 76.2574 79.9707 74.6071 79.9707 72.7715C79.9707 70.9359 80.3679 69.2945 81.1621 67.8472C81.9564 66.3822 83.0507 65.2438 84.445 64.4319C85.857 63.62 87.4279 63.2141 89.1576 63.2141ZM89.1576 65.4644C87.8691 65.4644 86.713 65.7645 85.6893 66.3646C84.6833 66.947 83.889 67.7942 83.3066 68.9062C82.7418 70.0005 82.4594 71.2889 82.4594 72.7715C82.4594 74.2365 82.7418 75.5249 83.3066 76.6369C83.889 77.7488 84.6833 78.6048 85.6893 79.2049C86.713 79.7874 87.8691 80.0786 89.1576 80.0786C90.4284 80.0786 91.5668 79.7786 92.5728 79.1785C93.5965 78.5784 94.3908 77.7312 94.9556 76.6369C95.538 75.5249 95.8292 74.2365 95.8292 72.7715C95.8292 71.2889 95.538 70.0005 94.9556 68.9062C94.3908 67.7942 93.5965 66.947 92.5728 66.3646C91.5668 65.7645 90.4284 65.4644 89.1576 65.4644ZM104.752 74.5983V82.1172H102.342V63.4524H108.273C110.409 63.4524 112.006 63.9554 113.065 64.9614C114.124 65.9498 114.653 67.3089 114.653 69.0386C114.653 70.7859 114.106 72.1538 113.012 73.1422C111.918 74.1129 110.338 74.5983 108.273 74.5983H104.752ZM108.061 72.5862C109.526 72.5862 110.576 72.2773 111.212 71.6596C111.865 71.0418 112.191 70.1682 112.191 69.0386C112.191 67.8737 111.865 66.9912 111.212 66.3911C110.576 65.7733 109.526 65.4644 108.061 65.4644H104.752V72.5862H108.061ZM137.435 63.3994V67H132.351V82.1172H127.798V67H122.767V63.3994H137.435ZM149.748 82.1172L145.697 75.0484H144.664V82.1172H140.137V63.3994H147.868C149.35 63.3994 150.604 63.6553 151.627 64.1672C152.651 64.679 153.419 65.385 153.931 66.2852C154.442 67.1677 154.698 68.1825 154.698 69.3298C154.698 70.6888 154.319 71.8449 153.56 72.798C152.819 73.7511 151.733 74.4042 150.304 74.7572L154.751 82.1172H149.748ZM144.664 71.9508H147.471C148.371 71.9508 149.033 71.7567 149.456 71.3684C149.88 70.9624 150.092 70.3711 150.092 69.5945C150.092 68.8532 149.871 68.2708 149.43 67.8472C149.006 67.4236 148.353 67.2118 147.471 67.2118H144.664V71.9508ZM169.359 78.7019H162.343L161.178 82.1172H156.412L163.269 63.5318H168.485L175.342 82.1172H170.524L169.359 78.7019ZM168.194 75.2602L165.864 68.3767L163.508 75.2602H168.194ZM181.391 63.3994L185.971 77.4841L190.551 63.3994H195.396L188.883 82.1172H183.032L176.546 63.3994H181.391ZM202.453 67V70.9183H208.781V74.3336H202.453V78.4901H209.575V82.1172H197.926V63.3994H209.575V67H202.453ZM217.467 78.649H223.504V82.1172H212.94V63.3994H217.467V78.649Z" fill="white"/>
<defs>
<clipPath id="clip0_4245_1256">
<rect width="33.2762" height="47.3186" fill="white" transform="translate(95.8623)"/>
</clipPath>
</defs>
</svg>
