<svg xmlns="http://www.w3.org/2000/svg" width="47" height="66" viewBox="0 0 47 66" fill="none">
  <g clip-path="url(#clip0_4207_3808)">
    <path d="M28.8932 35.1469C32.442 33.8713 35.4704 33.2248 37.894 33.2248C38.9949 33.2248 39.9813 33.3603 40.8509 33.6222C39.4051 29.8114 35.7236 27.1016 31.4064 27.1016C25.8297 27.1016 21.3076 31.6228 21.3076 37.2004C21.3076 37.2714 21.3113 37.3416 21.313 37.4127C23.7159 36.8558 26.2151 36.109 28.8932 35.1469Z" fill="#FFC93D"/>
    <path d="M22.1845 45.5478C22.8582 46.1674 23.5406 47.348 22.9668 49.4527C22.7822 50.129 22.8458 50.3884 22.8648 50.4442C22.9429 50.4805 23.3985 50.623 25.0319 50.0835C26.3538 49.6469 28.0061 48.9157 29.7593 48.142C32.1011 47.1068 34.7548 45.934 37.1176 45.2586C37.8337 45.054 38.4961 44.9359 39.105 44.9042C40.5388 42.5533 41.8727 40.1272 43.0017 37.7016C42.6675 36.9365 42.1697 36.3475 41.498 35.9253C39.9642 34.957 36.6409 34.3399 29.5209 36.899C25.9518 38.1795 22.6141 39.1127 19.4531 39.7055C17.7678 40.0252 16.0658 40.2491 14.3552 40.3759C13.4129 40.4437 12.4847 40.4804 11.5709 40.4804C10.6996 40.4804 9.84024 40.4493 8.99286 40.3871H9.02425C7.89264 40.3061 6.76582 40.1683 5.64807 39.974C5.46301 39.9422 5.27629 39.91 5.09329 39.8748L5.05859 39.8687C5.12469 39.9975 5.19202 40.126 5.25935 40.2549C5.28207 40.2987 5.30397 40.3425 5.3271 40.3867C6.37841 42.393 7.54539 44.3808 8.76607 46.3062C11.2905 45.4462 19.3911 42.9776 22.1845 45.5478Z" fill="#A32107"/>
    <path d="M37.6295 47.04C35.3897 47.6798 32.9095 48.7749 30.5115 49.8362C25.7875 51.9243 23.0462 53.0479 21.6487 51.845C20.9741 51.2667 20.8163 50.2955 21.1794 48.9641C21.5768 47.5068 21.0906 47.0594 20.9316 46.9123C19.3416 45.4483 13.6674 46.6418 9.80957 47.9091C10.9976 49.7089 12.2187 51.4406 13.4191 53.0682C15.5395 52.7043 18.0548 52.6287 19.3825 53.8807C19.9885 54.4524 20.5999 55.5397 20.0719 57.4746C19.9893 57.7762 19.9757 57.9567 19.9774 58.0529C20.7622 58.1645 23.406 56.9938 25.1823 56.2085C27.0412 55.3873 29.1479 54.4562 31.0291 53.9183C31.8228 53.6914 32.5372 53.5958 33.1723 53.6316C34.7069 51.5736 36.2853 49.3355 37.7947 46.9962C37.7361 47.0094 37.6828 47.023 37.6295 47.04Z" fill="#0774A3"/>
    <path d="M31.5347 55.7033C29.7754 56.2057 27.8198 57.0703 25.9283 57.9063C23.3543 59.0444 21.4062 59.9053 20.048 59.9053C19.511 59.9053 19.0665 59.7706 18.7116 59.4653C18.1164 58.9535 17.9714 58.1199 18.2799 56.9868C18.5092 56.1453 18.451 55.5542 18.1073 55.2299C17.529 54.6847 16.1905 54.607 14.6943 54.7726C19.4168 60.9739 23.5022 65.2763 23.5022 65.2763C23.5022 65.2763 27.1915 61.3903 31.6116 55.6827L31.5347 55.7033Z" fill="#0774A3"/>
    <path d="M38.3405 25.8457C38.3583 25.8685 38.3661 25.8602 38.4029 25.8842C38.4396 25.9081 38.5644 25.9366 38.5784 25.8503C38.6788 25.2307 38.4743 24.6366 38.1703 24.0976C37.7804 23.4065 37.3681 22.8901 36.7464 22.3626C36.3065 21.9908 35.7091 21.6603 35.1655 21.4216C35.7459 21.4732 36.2941 21.6938 36.8092 21.9173C36.929 21.9689 36.9517 21.876 36.9488 21.8128C36.9459 21.7495 36.8972 21.6983 36.8815 21.6401C37.088 21.788 37.2343 21.9251 37.4639 22.0652C37.6936 22.2052 37.9749 22.2457 38.2335 22.3977C38.4921 22.5497 38.8172 22.8248 39.106 22.9244C39.3947 23.0239 39.6153 23.0847 39.8933 23.1838L39.9078 23.2036C39.9445 23.2528 40.1841 23.2214 40.097 23.0933C39.3592 22.0069 38.7825 21.0824 37.5296 20.4818C36.5448 20.01 35.3068 19.7357 34.1836 19.9766C34.179 19.9311 34.1576 19.9225 34.1555 19.8721C34.1443 19.6296 34.6834 19.6919 34.8334 19.6618C35.3931 19.5498 35.8318 19.326 36.3011 19.0182C36.3163 19.0073 36.3286 18.9928 36.337 18.976C36.3454 18.9593 36.3495 18.9407 36.349 18.922C36.3044 18.4353 36.8241 18.7319 37.0868 18.7567C37.3495 18.7815 37.5263 18.7439 37.7742 18.6939C38.5685 18.5336 39.2807 18.456 40.0565 18.7501C40.1201 18.7745 40.1515 18.7402 40.1804 18.7022C40.2093 18.6642 40.2535 18.634 40.2184 18.5894C39.7975 18.0524 39.1911 17.7979 38.5289 17.6806C37.5969 17.5154 36.9645 17.3473 35.9438 17.5451C34.6995 17.7864 33.1083 18.3114 32.4424 19.5643C32.4011 19.0736 32.4581 18.6088 32.841 18.2598C32.8799 18.2242 32.8613 18.2003 32.8592 18.152C32.8572 18.1036 32.6655 17.9917 32.7188 17.969C32.8146 17.9276 32.946 18.0148 33.1186 17.8756C33.2913 17.7364 33.502 17.4398 33.7903 17.3353C34.0787 17.2308 34.4843 17.1874 34.7917 17.0263C35.099 16.8652 35.4526 16.6834 35.7773 16.5454C35.7956 16.5391 35.8115 16.5272 35.8227 16.5114C35.834 16.4956 35.84 16.4767 35.84 16.4573C35.84 16.4379 35.834 16.4189 35.8227 16.4031C35.8115 16.3873 35.7956 16.3754 35.7773 16.3691C34.4083 15.8552 33.0782 15.419 32.0244 16.7776C31.5967 17.3322 31.3044 17.979 31.171 18.6665C31.0375 19.354 31.0665 20.0632 31.2556 20.7375C30.7186 20.2909 30.0052 20.0323 29.3323 19.8849C28.6593 19.7374 28.0756 19.5189 27.3907 19.6308C26.2242 19.8217 25.619 20.49 25.9912 21.6748C25.9981 21.6931 26.0103 21.709 26.0263 21.7204C26.0422 21.7318 26.0611 21.7383 26.0807 21.739C26.1003 21.7397 26.1197 21.7346 26.1364 21.7244C26.1531 21.7141 26.1664 21.6992 26.1746 21.6814C26.3969 21.2113 26.7608 21.1357 27.2486 21.1642C27.2619 21.1653 27.2752 21.1636 27.2877 21.1592C27.3002 21.1548 27.3117 21.1478 27.3213 21.1387C27.3309 21.1296 27.3385 21.1185 27.3436 21.1063C27.3487 21.094 27.3511 21.0808 27.3507 21.0675C27.3462 21.0317 27.3397 20.9961 27.3313 20.961C27.8811 21.2501 28.4805 21.1725 29.0741 21.2129C29.1625 21.2191 29.1898 21.1535 29.1741 21.0911C29.0167 20.4781 29.4459 21.1964 29.5533 21.308C29.6607 21.4195 29.7069 21.4203 29.8127 21.4905C28.4578 21.878 27.4783 22.7344 26.7236 23.9046C26.3783 24.4417 26.168 24.8961 26.0627 25.557C25.9573 26.2179 26.2312 26.9764 26.3675 27.6485C26.3882 27.7505 26.5278 27.7414 26.5637 27.7042C26.5997 27.6671 26.5869 27.6836 26.5931 27.6749C26.9463 27.1738 26.9008 26.543 27.0297 25.9982C27.083 25.7597 27.1107 25.5163 27.1123 25.272C27.1041 25.1781 27.0789 25.0866 27.038 25.0018C27.109 25.0431 27.2263 25.2013 27.3304 25.2819C27.3473 25.2921 27.3667 25.2975 27.3864 25.2975C27.4062 25.2975 27.4255 25.2921 27.4424 25.2819C27.9001 24.8775 28.39 24.4788 28.749 23.9922C28.8729 23.827 28.9184 23.6324 28.9828 23.4853C29.001 23.444 29.0402 23.5911 29.0766 23.6093C29.1129 23.6275 29.1592 23.6758 29.2352 23.6233C29.3112 23.5709 29.4616 23.5035 29.5533 23.4548C28.6275 24.837 28.307 26.3633 28.7395 27.9719C28.8027 28.2082 28.9006 28.3437 29.0096 28.5329C28.9911 28.4792 28.9944 28.3544 29.0047 28.3652C29.015 28.3759 29.0993 28.6209 29.1402 28.6419C29.1811 28.663 29.1947 28.6911 29.1897 28.6006C29.1848 28.5102 29.0567 28.2702 29.0576 28.1392C29.0584 28.0083 29.1741 27.7963 29.243 27.698C29.4698 27.3746 29.7387 27.1817 29.9453 26.8442C30.1518 26.5067 30.0585 26.2072 29.8825 25.8709C30.01 25.9206 30.1405 25.962 30.2733 25.9949C30.3671 26.0135 30.4001 25.9709 30.417 25.9122C30.5294 25.514 30.6203 25.1191 30.745 24.725C30.8698 24.3309 30.9929 23.9542 31.2511 23.6229C31.4832 24.2058 31.4027 24.7539 31.5163 25.3748C31.6299 25.9957 31.7526 26.6554 32.012 27.2631C32.4503 28.2838 32.9699 29.1595 33.8738 29.8482C33.9118 29.8767 33.9514 29.842 34.0014 29.8482C34.0514 29.8544 34.0555 29.9056 34.1423 29.9333C34.229 29.9609 34.3629 29.8139 34.2741 29.7238C33.8969 29.3401 33.9539 28.8853 33.8866 28.4061C33.8453 28.1136 33.7408 27.9145 33.6144 27.6625C33.6732 27.6488 33.7311 27.6314 33.7878 27.6105C33.8527 27.5898 33.9304 27.515 33.9076 27.4452C33.7341 26.8966 33.547 26.353 33.4214 25.8003C33.4085 25.7229 33.378 25.6495 33.3323 25.5857C33.2866 25.5219 33.227 25.4694 33.1579 25.4322C33.236 25.3967 33.352 25.3381 33.4219 25.3046C33.4513 25.2945 33.4759 25.2739 33.4912 25.2468C33.5064 25.2197 33.5111 25.1879 33.5045 25.1575C33.4475 24.951 33.3421 24.7395 33.2764 24.5631C33.2764 24.5602 33.2764 24.5606 33.2764 24.5598C33.1195 24.4664 33.2174 24.4668 33.4004 24.5073C33.3769 24.3864 33.3631 24.2637 33.3591 24.1405C33.3496 23.8282 33.5404 23.6448 33.7722 23.5853C33.8664 23.5376 33.9721 23.5168 34.0774 23.5254C33.9384 23.3525 33.8097 23.1715 33.692 22.9834C33.8491 23.0954 34.0165 23.1922 34.1919 23.2726C34.4896 23.4121 34.7662 23.5929 35.0135 23.8096C35.0655 23.8567 35.1692 23.8323 35.1659 23.7456C35.1626 23.6588 35.1382 23.5457 35.1366 23.4531C35.2728 23.634 35.3827 23.8333 35.4629 24.0451C35.4774 24.081 35.5104 24.0864 35.5513 24.0901C36.8381 24.1756 37.5713 24.8717 38.3405 25.8457Z" fill="white"/>
    <path d="M44.5917 27.2563C44.215 27.1947 43.894 27.3149 43.5239 27.3963C43.1538 27.4777 42.7605 27.6194 42.4655 27.8652C42.5696 27.4942 42.5855 27.104 42.5121 26.7257C42.4387 26.3475 42.2779 25.9916 42.0425 25.6865C41.4642 24.9384 40.731 25.1788 39.9771 25.4618C39.9669 25.4652 39.9581 25.4718 39.9519 25.4805C39.9456 25.4892 39.9422 25.4996 39.9422 25.5103C39.9422 25.5211 39.9456 25.5315 39.9519 25.5402C39.9581 25.5489 39.9669 25.5555 39.9771 25.5589C40.1568 25.6345 40.3489 25.7349 40.5191 25.8233C40.6893 25.9117 40.9119 25.9356 41.0701 25.9935C41.2283 26.0513 41.3444 26.214 41.4394 26.2905C41.5344 26.3669 41.6047 26.3194 41.6596 26.3421C41.6889 26.3545 41.5836 26.4161 41.5824 26.4429C41.5811 26.4698 41.5712 26.4842 41.5923 26.502C41.803 26.6941 41.8352 26.9498 41.8116 27.2199C41.4452 26.5305 40.5699 26.2413 39.8854 26.1087C39.324 25.9997 38.9766 26.0926 38.4631 26.1835C38.0988 26.2479 37.7654 26.39 37.5337 26.6833C37.5143 26.7081 37.5378 26.7246 37.5547 26.7453C37.5717 26.7659 37.5882 26.7866 37.6233 26.7717C38.05 26.6102 38.4421 26.6528 38.8791 26.7407C39.0024 26.7727 39.13 26.7844 39.2571 26.7754C39.4017 26.7626 39.6875 26.5995 39.6631 26.8671C39.6629 26.8774 39.6651 26.8877 39.6698 26.8969C39.6744 26.9061 39.6812 26.9141 39.6896 26.92C39.9478 27.0894 40.189 27.2129 40.4968 27.2744C40.5794 27.291 40.876 27.2567 40.8685 27.3897C40.8685 27.4174 40.8553 27.4223 40.8528 27.4475C40.2357 27.3149 39.5545 27.4657 39.0125 27.7255C38.3235 28.056 38.0062 28.5645 37.6002 29.1623C37.5523 29.2329 37.6828 29.2498 37.7043 29.223C37.7084 29.2176 37.7105 29.2143 37.7121 29.2118C37.865 29.1573 37.986 29.1243 38.145 29.0693C38.3041 29.0144 38.483 28.8628 38.6251 28.7802C38.7672 28.6975 38.9225 28.6744 39.0485 28.5972C39.1745 28.5199 39.255 28.4447 39.369 28.3634C39.3604 28.3956 39.3335 28.4245 39.3318 28.4588C39.3302 28.4931 39.3426 28.5443 39.4087 28.5158C39.6921 28.3919 39.9936 28.2725 40.3129 28.2444C40.0139 28.3757 39.6855 28.5567 39.4454 28.762C39.126 29.0277 38.8596 29.3515 38.6606 29.7162C38.4953 30.0128 38.3809 30.3383 38.4363 30.6804C38.4437 30.7279 38.5127 30.7126 38.5329 30.699C38.5532 30.6853 38.5573 30.6903 38.5672 30.6779C38.9902 30.1409 39.3934 29.7592 40.0994 29.7088C40.1217 29.7088 40.1407 29.7038 40.1477 29.6844C40.1918 29.5678 40.2523 29.458 40.3274 29.3585C40.3274 29.4093 40.3129 29.4717 40.3113 29.5196C40.3116 29.529 40.3146 29.5381 40.32 29.5459C40.3253 29.5536 40.3328 29.5597 40.3414 29.5634C40.3501 29.5671 40.3596 29.5682 40.3689 29.5667C40.3782 29.5651 40.3869 29.561 40.3939 29.5547C40.5299 29.4352 40.682 29.3355 40.8458 29.2585C40.9424 29.2144 41.0345 29.1612 41.1209 29.0995C41.0562 29.2029 40.9854 29.3025 40.909 29.3977C40.9669 29.3932 41.0249 29.4046 41.0767 29.4308C41.1451 29.4456 41.2059 29.4846 41.2476 29.5408C41.2894 29.5969 41.3094 29.6663 41.3039 29.736C41.3019 29.8039 41.2943 29.8714 41.2812 29.9381C41.3812 29.9157 41.4349 29.9157 41.3486 29.967C41.3122 30.064 41.2544 30.1809 41.2246 30.2941C41.2205 30.3111 41.2229 30.329 41.2313 30.3443C41.2397 30.3596 41.2535 30.3712 41.2701 30.3768C41.3085 30.3949 41.3721 30.4276 41.4151 30.4466C41.3771 30.4672 41.3443 30.4961 41.3192 30.5313C41.2941 30.5664 41.2773 30.6068 41.2701 30.6494C41.2011 30.9534 41.0982 31.2525 41.0028 31.5545C40.9904 31.5958 41.033 31.6371 41.0689 31.6462C41.1 31.6579 41.1319 31.6676 41.1643 31.6751C41.0945 31.8139 41.0367 31.9229 41.0144 32.084C40.9772 32.348 41.0086 32.5979 40.8012 32.809C40.7525 32.8586 40.826 32.94 40.8735 32.9247C40.921 32.9094 40.9239 32.8813 40.9512 32.8776C40.9784 32.8739 41.0007 32.8933 41.0214 32.8776C41.5171 32.4988 41.8063 32.0171 42.0458 31.4557C42.1892 31.1211 42.2565 30.758 42.3193 30.4168C42.3821 30.0756 42.3375 29.7736 42.4651 29.4531C42.6072 29.6353 42.675 29.8426 42.7436 30.0591C42.8121 30.2755 42.8621 30.4932 42.9241 30.7122C42.9253 30.721 42.9285 30.7293 42.9334 30.7367C42.9383 30.7441 42.9448 30.7502 42.9524 30.7547C42.9601 30.7592 42.9686 30.7619 42.9774 30.7626C42.9863 30.7633 42.9951 30.7621 43.0034 30.7589C43.0764 30.7405 43.1481 30.7174 43.2182 30.6899C43.1211 30.8749 43.0687 31.0398 43.1835 31.2269C43.2983 31.414 43.4462 31.5185 43.571 31.6966C43.609 31.7507 43.6726 31.8676 43.673 31.9391C43.6734 32.0105 43.6028 32.1456 43.6003 32.1931C43.5978 32.2406 43.6053 32.2266 43.6276 32.215C43.6499 32.2034 43.6945 32.0708 43.7023 32.0626C43.7102 32.0543 43.7098 32.1254 43.6994 32.1551C43.7598 32.0506 43.8135 31.9762 43.8482 31.8465C44.0861 30.9617 43.9097 30.1219 43.4004 29.3614C43.4508 29.3882 43.5338 29.4254 43.5751 29.4539C43.6164 29.4824 43.6424 29.456 43.6627 29.4461C43.6829 29.4361 43.704 29.3552 43.7143 29.3783C43.7494 29.4609 43.7759 29.5663 43.8428 29.6571C44.0407 29.9248 44.31 30.1442 44.5616 30.3664C44.5709 30.3721 44.5816 30.3751 44.5925 30.3751C44.6035 30.3751 44.6142 30.3721 44.6235 30.3664C44.6805 30.3222 44.7475 30.2363 44.7842 30.2123C44.7616 30.259 44.7476 30.3094 44.7429 30.3611C44.7437 30.4954 44.759 30.6294 44.7884 30.7605C44.8594 31.0604 44.8342 31.4074 45.0288 31.6834C45.0321 31.6879 45.025 31.6788 45.0449 31.6995C45.0647 31.7201 45.1411 31.7247 45.1527 31.6685C45.2279 31.2967 45.3782 30.8803 45.3204 30.518C45.2626 30.1557 45.1465 29.9042 44.9565 29.6092C44.5413 28.9652 44.0022 28.4939 43.257 28.2812C43.3153 28.2423 43.3396 28.2398 43.4 28.1808C43.4603 28.1217 43.6949 27.7264 43.6065 28.0614C43.6031 28.0696 43.602 28.0786 43.6034 28.0874C43.6047 28.0961 43.6083 28.1044 43.614 28.1113C43.6196 28.1181 43.627 28.1233 43.6354 28.1263C43.6437 28.1293 43.6527 28.13 43.6614 28.1283C43.9878 28.106 44.3174 28.1477 44.6202 27.9899C44.6154 28.0092 44.6119 28.0288 44.6095 28.0486C44.6093 28.0559 44.6106 28.0631 44.6134 28.0698C44.6162 28.0766 44.6204 28.0826 44.6257 28.0876C44.631 28.0926 44.6373 28.0964 44.6442 28.0988C44.6511 28.1012 44.6584 28.1021 44.6657 28.1015C44.935 28.0858 45.1353 28.1275 45.2572 28.3861C45.2618 28.3959 45.2691 28.4041 45.2783 28.4098C45.2876 28.4154 45.2982 28.4182 45.309 28.4178C45.3198 28.4174 45.3303 28.4138 45.3391 28.4075C45.3479 28.4012 45.3546 28.3925 45.3584 28.3824C45.5666 27.7268 45.2332 27.3591 44.5917 27.2563Z" fill="white"/>
    <path d="M40.2204 18.5816C39.7994 18.0446 39.193 17.7901 38.5308 17.6728C37.5989 17.5076 36.9665 17.3394 35.9457 17.5373C34.7015 17.7786 33.1103 18.3036 32.4444 19.5565C32.4031 19.0657 32.4601 18.601 32.843 18.252C32.8818 18.2164 32.8632 18.1925 32.8612 18.1441C32.8591 18.0958 32.6674 17.9839 32.7207 17.9611C32.8166 17.9198 32.9479 18.007 33.1206 17.8678C33.2933 17.7286 33.5039 17.432 33.7923 17.3275C34.0806 17.223 34.4863 17.1796 34.7936 17.0185C35.1009 16.8574 35.4546 16.6756 35.7792 16.5376C35.7976 16.5313 35.8135 16.5194 35.8247 16.5036C35.8359 16.4878 35.842 16.4688 35.842 16.4494C35.842 16.43 35.8359 16.4111 35.8247 16.3953C35.8135 16.3795 35.7976 16.3676 35.7792 16.3612C34.4103 15.8474 33.0801 15.4111 32.0263 16.7698C31.5986 17.3244 31.3064 17.9712 31.1729 18.6587C31.0395 19.3462 31.0684 20.0554 31.2576 20.7297C30.7206 20.2831 30.0071 20.0245 29.3342 19.8775C28.6613 19.7304 28.0776 19.5111 27.3927 19.623C26.2261 19.8138 25.621 20.4822 25.9932 21.667C26.0001 21.6853 26.0123 21.7012 26.0282 21.7126C26.0441 21.724 26.0631 21.7305 26.0827 21.7312C26.1022 21.7319 26.1216 21.7268 26.1383 21.7166C26.155 21.7063 26.1683 21.6914 26.1766 21.6736C26.3988 21.2035 26.7627 21.1279 27.2506 21.1564C27.2638 21.1575 27.2771 21.1558 27.2897 21.1514C27.3022 21.147 27.3136 21.14 27.3233 21.1309C27.3329 21.1218 27.3405 21.1107 27.3456 21.0985C27.3506 21.0862 27.353 21.073 27.3526 21.0597C27.3482 21.0239 27.3417 20.9883 27.3332 20.9531C27.883 21.2423 28.4824 21.1647 29.076 21.2051C29.1644 21.2113 29.1917 21.1456 29.176 21.0833C29.0186 20.4702 29.4478 21.1886 29.5552 21.3001C29.6626 21.4117 29.7089 21.4125 29.8146 21.4827C28.4597 21.8702 27.4803 22.7265 26.7256 23.8968C26.3802 24.4338 26.17 24.8882 26.0646 25.5492C25.9593 26.2101 26.2332 26.9686 26.3695 27.6407C26.3901 27.7427 26.5298 27.7336 26.5657 27.6964C26.6016 27.6592 26.5888 27.6758 26.595 27.6671C26.9482 27.166 26.9028 26.5352 27.0317 25.9904C27.0849 25.7519 27.1126 25.5085 27.1143 25.2642C27.1061 25.1703 27.0809 25.0788 27.0399 24.994C27.111 25.0353 27.2283 25.1935 27.3324 25.2741C27.3493 25.2843 27.3686 25.2897 27.3884 25.2897C27.4081 25.2897 27.4275 25.2843 27.4443 25.2741C27.902 24.8696 28.392 24.471 28.7509 23.9844C28.8749 23.8192 28.9203 23.6246 28.9847 23.4775C29.0029 23.4362 29.0422 23.5833 29.0785 23.6015C29.1149 23.6196 29.1611 23.668 29.2371 23.6155C29.3132 23.563 29.4635 23.4957 29.5552 23.447C28.6295 24.8292 28.3089 26.3555 28.7414 27.9641C28.8046 28.2004 28.9025 28.3359 29.0116 28.5251C28.993 28.4714 28.9963 28.3466 29.0066 28.3574C29.017 28.3681 29.1012 28.6131 29.1421 28.6341C29.183 28.6552 29.1967 28.6833 29.1917 28.5928C29.1867 28.5024 29.0587 28.2624 29.0595 28.1314C29.0603 28.0005 29.176 27.7885 29.245 27.6902C29.4718 27.3668 29.7407 27.1739 29.9472 26.8364C30.1538 26.4989 30.0604 26.1994 29.8845 25.8631C30.0119 25.9128 30.1425 25.9542 30.2752 25.9871C30.369 26.0056 30.4021 25.9631 30.419 25.9044C30.5314 25.5062 30.6222 25.1113 30.747 24.7172C30.8717 24.3231 30.9948 23.9464 31.253 23.6151C31.4852 24.198 31.4046 24.7461 31.5182 25.367C31.6318 25.9879 31.7545 26.6476 32.0139 27.2552C32.4522 28.276 32.9719 29.1517 33.8757 29.8404C33.9137 29.8689 33.9534 29.8346 34.0034 29.8404C34.0534 29.8461 34.0575 29.8978 34.1442 29.9254C34.231 29.9531 34.3648 29.8061 34.276 29.716C33.8989 29.3323 33.9559 28.8774 33.8885 28.3983C33.8472 28.1058 33.7427 27.9067 33.6163 27.6547C33.6752 27.6409 33.7331 27.6236 33.7898 27.6026C33.8547 27.582 33.9323 27.5072 33.9096 27.4374C33.7361 26.8888 33.549 26.3452 33.4234 25.7925C33.4104 25.7151 33.3799 25.6417 33.3343 25.5779C33.2886 25.5141 33.2289 25.4616 33.1598 25.4244C33.2379 25.3889 33.354 25.3302 33.4238 25.2968C33.4532 25.2867 33.4779 25.2661 33.4931 25.239C33.5083 25.2119 33.5131 25.1801 33.5064 25.1497C33.4494 24.9432 33.3441 24.7317 33.2784 24.5553C33.2784 24.5524 33.2784 24.5528 33.2784 24.552C33.1214 24.4586 33.2193 24.459 33.4023 24.4995C33.3788 24.3785 33.365 24.2559 33.361 24.1327C33.3515 23.8204 33.5424 23.637 33.7741 23.5775C33.8684 23.5297 33.974 23.509 34.0794 23.5176C33.9403 23.3447 33.8116 23.1637 33.694 22.9756C33.8511 23.0876 34.0184 23.1844 34.1938 23.2648C34.4916 23.4043 34.7682 23.5851 35.0154 23.8018C35.0675 23.8489 35.1712 23.8245 35.1679 23.7378C35.1646 23.651 35.1402 23.5378 35.1385 23.4453C35.2747 23.6262 35.3846 23.8255 35.4649 24.0373C35.4793 24.0732 35.5124 24.0786 35.5533 24.0823C36.8339 24.1736 37.5692 24.8697 38.3379 25.8437C38.3557 25.8664 38.3635 25.8582 38.4003 25.8821C38.4371 25.9061 38.5618 25.9346 38.5759 25.8483C38.6762 25.2286 38.4718 24.6346 38.1677 24.0955C37.7778 23.4044 37.3655 22.8881 36.7438 22.3605C36.3039 21.9888 35.7065 21.6583 35.1629 21.4195C35.7433 21.4712 36.2915 21.6918 36.8066 21.9152C36.9264 21.9669 36.9491 21.8739 36.9462 21.8107C36.9433 21.7475 36.8946 21.6963 36.8789 21.6381C37.0854 21.7859 37.2317 21.9231 37.4613 22.0631C37.691 22.2032 37.9723 22.2436 38.2309 22.3957C38.4895 22.5477 38.8146 22.8228 39.1034 22.9223C39.3921 23.0219 39.6127 23.0826 39.8907 23.1818L39.9052 23.2016C39.9419 23.2508 40.1815 23.2194 40.0944 23.0913C39.3566 22.0049 38.7799 21.0804 37.527 20.4797C36.5422 20.008 35.3042 19.7337 34.181 19.9745C34.1765 19.9291 34.155 19.9204 34.1529 19.87C34.1418 19.6275 34.6808 19.6899 34.8308 19.6598C35.3905 19.5478 35.8292 19.3239 36.2985 19.0162C36.3137 19.0053 36.3261 18.9908 36.3344 18.974C36.3428 18.9572 36.3469 18.9387 36.3464 18.9199C36.3018 18.4333 36.8215 18.7299 37.0842 18.7547C37.3469 18.7795 37.5237 18.7419 37.7716 18.6919C38.5659 18.5316 39.2781 18.454 40.0539 18.7481C40.1175 18.7724 40.1489 18.7382 40.1778 18.7002C40.2067 18.6622 40.2555 18.6262 40.2204 18.5816Z" fill="#A32107"/>
    <path d="M29.9521 20.1523C29.9521 20.1523 42.2015 29.9161 32.4377 40.0352L36.1654 40.2124C36.1654 40.2124 42.9116 29.206 29.9521 20.1523Z" fill="#A32107"/>
    <path d="M37.5331 26.6794C37.7648 26.3845 38.0982 26.244 38.4625 26.1796C38.9752 26.0887 39.3234 25.9958 39.8848 26.1048C40.5693 26.2374 41.4446 26.5266 41.811 27.216C41.8346 26.9459 41.8024 26.6902 41.5917 26.4981C41.5706 26.4786 41.5809 26.4654 41.5818 26.439C41.5826 26.4126 41.6883 26.3506 41.659 26.3382C41.6061 26.3155 41.5351 26.3634 41.4388 26.2866C41.3426 26.2097 41.2282 26.047 41.0695 25.9896C40.9109 25.9321 40.6878 25.9069 40.5189 25.8194C40.3499 25.7318 40.1562 25.6306 39.9765 25.555C39.9665 25.5514 39.9579 25.5448 39.9518 25.5361C39.9457 25.5274 39.9425 25.5171 39.9425 25.5064C39.9425 25.4958 39.9457 25.4855 39.9518 25.4768C39.9579 25.4681 39.9665 25.4615 39.9765 25.4579C40.7296 25.1749 41.4611 24.9345 42.0419 25.6826C42.2773 25.9877 42.4381 26.3436 42.5115 26.7218C42.5849 27.1001 42.569 27.4903 42.4649 27.8613C42.7599 27.6134 43.1527 27.4734 43.5233 27.3924C43.8938 27.3114 44.2144 27.1908 44.5911 27.2524C45.2326 27.3573 45.566 27.7249 45.3611 28.3768C45.3573 28.3869 45.3506 28.3957 45.3418 28.402C45.333 28.4083 45.3226 28.4119 45.3117 28.4123C45.3009 28.4127 45.2903 28.4099 45.281 28.4042C45.2718 28.3986 45.2645 28.3903 45.2599 28.3805C45.136 28.1219 44.9377 28.0802 44.6684 28.0959C44.6611 28.0965 44.6538 28.0956 44.6469 28.0933C44.64 28.0909 44.6337 28.0871 44.6284 28.0821C44.6231 28.0771 44.6189 28.071 44.6161 28.0643C44.6133 28.0576 44.612 28.0503 44.6122 28.043C44.6146 28.0233 44.6181 28.0037 44.6229 27.9844C44.3201 28.1422 43.9905 28.1004 43.6641 28.1227C43.6554 28.1245 43.6464 28.1238 43.6381 28.1208C43.6297 28.1178 43.6223 28.1126 43.6167 28.1057C43.611 28.0988 43.6074 28.0906 43.6061 28.0818C43.6047 28.073 43.6058 28.064 43.6092 28.0558C43.6955 27.7187 43.4593 28.1137 43.4027 28.1752C43.3461 28.2368 43.32 28.2368 43.2597 28.2756C44.0033 28.4887 44.544 28.9597 44.9592 29.6037C45.1492 29.8986 45.2649 30.1502 45.3231 30.5125C45.3814 30.8747 45.2306 31.2932 45.1554 31.6629C45.1438 31.7191 45.0674 31.7141 45.0476 31.6939C45.0278 31.6737 45.0348 31.6823 45.0315 31.6778C44.8369 31.4018 44.8621 31.0549 44.7911 30.755C44.7617 30.6238 44.7464 30.4899 44.7456 30.3555C44.7503 30.3038 44.7643 30.2535 44.7869 30.2068C44.7481 30.2307 44.6832 30.3167 44.6262 30.3609C44.6169 30.3666 44.6062 30.3696 44.5953 30.3696C44.5843 30.3696 44.5736 30.3666 44.5643 30.3609C44.3127 30.1386 44.0434 29.9193 43.8455 29.6516C43.7786 29.5607 43.7521 29.4537 43.717 29.3728C43.7071 29.3496 43.6852 29.431 43.6654 29.4405C43.6456 29.45 43.6195 29.4773 43.5778 29.4484C43.5361 29.4194 43.4539 29.3827 43.4031 29.3558C43.9124 30.1163 44.0888 30.9561 43.8509 31.841C43.8162 31.9707 43.7625 32.045 43.7022 32.1495C43.7125 32.1198 43.7108 32.0512 43.705 32.057C43.6993 32.0628 43.653 32.1979 43.6303 32.2094C43.6076 32.221 43.6005 32.2363 43.603 32.1875C43.6055 32.1388 43.6761 32.0054 43.6757 31.9335C43.6753 31.8616 43.6117 31.7451 43.5737 31.691C43.4498 31.513 43.301 31.4068 43.1862 31.2213C43.0714 31.0359 43.1238 30.8706 43.2209 30.6843C43.1509 30.7119 43.0791 30.7349 43.0061 30.7533C42.9978 30.7565 42.989 30.7578 42.9801 30.7571C42.9713 30.7564 42.9628 30.7537 42.9551 30.7492C42.9475 30.7447 42.941 30.7385 42.9361 30.7311C42.9312 30.7238 42.928 30.7154 42.9268 30.7066C42.8648 30.4877 42.8148 30.2704 42.7463 30.0535C42.6777 29.8367 42.6099 29.6297 42.4678 29.4475C42.3402 29.7681 42.3852 30.0696 42.322 30.4113C42.2588 30.7529 42.1919 31.1135 42.0486 31.4502C41.8073 32.0116 41.5214 32.4932 41.0241 32.872C41.0034 32.8881 40.9828 32.8691 40.9539 32.872C40.925 32.8749 40.9241 32.9038 40.8762 32.9191C40.8283 32.9344 40.7552 32.853 40.8039 32.8035C41.0105 32.5924 40.9799 32.3425 41.0171 32.0785C41.0394 31.9178 41.0972 31.8083 41.167 31.6695C41.1346 31.662 41.1027 31.6523 41.0716 31.6406C41.0357 31.6295 40.9931 31.5882 41.0055 31.5489C41.1009 31.2469 41.2038 30.9479 41.2728 30.6438C41.28 30.6013 41.2968 30.5609 41.3219 30.5257C41.347 30.4906 41.3798 30.4616 41.4178 30.441C41.3765 30.422 41.3112 30.3894 41.2728 30.3712C41.2562 30.3656 41.2424 30.354 41.234 30.3387C41.2256 30.3234 41.2232 30.3055 41.2273 30.2886C41.2587 30.1754 41.3166 30.0585 41.3513 29.9614C41.4376 29.9102 41.3839 29.9102 41.2839 29.9325C41.297 29.8659 41.3046 29.7983 41.3066 29.7305C41.3121 29.6607 41.2921 29.5914 41.2503 29.5352C41.2086 29.4791 41.1478 29.44 41.0794 29.4252C41.0276 29.3991 40.9696 29.3876 40.9117 29.3922C40.9881 29.297 41.0589 29.1974 41.1236 29.0939C41.0372 29.1556 40.9451 29.2089 40.8485 29.253C40.6847 29.33 40.5326 29.4297 40.3966 29.5491C40.3896 29.5554 40.3809 29.5596 40.3716 29.5611C40.3623 29.5627 40.3528 29.5615 40.3441 29.5579C40.3355 29.5542 40.328 29.5481 40.3227 29.5403C40.3174 29.5326 40.3143 29.5234 40.314 29.514C40.314 29.4661 40.3293 29.4037 40.3301 29.3529C40.255 29.4525 40.1945 29.5622 40.1504 29.6789C40.1426 29.6983 40.1244 29.7016 40.1021 29.7032C39.3965 29.7536 38.9929 30.1366 38.5699 30.6723C38.56 30.6847 38.5559 30.6802 38.5356 30.6934C38.5154 30.7066 38.4464 30.7223 38.439 30.6748C38.3836 30.3328 38.496 30.0073 38.6633 29.7107C38.8625 29.346 39.1288 29.0222 39.4482 28.7564C39.6902 28.5499 40.0186 28.3702 40.3156 28.2388C39.9963 28.2669 39.696 28.3884 39.4114 28.5102C39.3453 28.5387 39.3329 28.4871 39.3346 28.4532C39.3362 28.4193 39.3631 28.39 39.3717 28.3578C39.2577 28.4404 39.1776 28.5148 39.0512 28.5916C38.9248 28.6684 38.7699 28.6912 38.6278 28.7746C38.4857 28.858 38.3068 29.0097 38.1478 29.0638C37.9887 29.1179 37.8677 29.1518 37.7148 29.2063C37.7148 29.2088 37.7111 29.2121 37.707 29.2174C37.6867 29.2443 37.555 29.2274 37.6029 29.1567C38.009 28.559 38.3262 28.0505 39.0152 27.72C39.5572 27.4602 40.2384 27.3094 40.8556 27.442C40.858 27.4168 40.8696 27.4118 40.8712 27.3841C40.877 27.2511 40.5821 27.2854 40.4995 27.2689C40.1917 27.2073 39.9505 27.0838 39.6923 26.9145C39.6839 26.9085 39.6771 26.9006 39.6725 26.8913C39.6679 26.8821 39.6656 26.8719 39.6659 26.8616C39.6906 26.5939 39.4044 26.7571 39.2598 26.7699C39.1327 26.7788 39.0051 26.7671 38.8818 26.7352C38.4448 26.6472 38.0527 26.6046 37.626 26.7662C37.5909 26.7794 37.574 26.7608 37.5574 26.7397C37.5409 26.7187 37.5137 26.7042 37.5331 26.6794Z" fill="#A32107"/>
    <path d="M43.1828 27.5391C43.1828 27.5391 36.4437 32.9092 41.8155 38.4781L39.7645 38.5756C39.7645 38.5756 36.0529 32.5201 43.1828 27.5391Z" fill="#A32107"/>
    <path d="M3.09883 35.6526C3.19384 35.8819 3.28968 36.1116 3.38799 36.3416H4.94203V36.9518H3.65733C3.77492 37.2153 3.89554 37.4792 4.01919 37.7433C4.5876 37.881 5.16056 38.0019 5.73806 38.106V10.3633L2.97903 12.5113C1.4254 15.9206 0.548828 20.0131 0.548828 24.776C0.548828 27.2714 1.08584 29.9503 1.99464 32.6978H4.94203V33.3079H2.20366C2.40443 33.8832 2.62033 34.4615 2.85139 35.0429H4.94286V35.653L3.09883 35.6526ZM1.65302 18.1641H4.94451V18.7746H1.65136L1.65302 18.1641ZM1.65302 20.56H4.94451V21.1697H1.65136L1.65302 20.56ZM1.65302 22.9026H4.94451V23.5127H1.65136L1.65302 22.9026ZM1.65302 24.2018H4.94451V24.8119H1.65136L1.65302 24.2018ZM1.65302 26.5444H4.94451V27.155H1.65136L1.65302 26.5444ZM1.65302 28.9403H4.94451V29.5505H1.65136L1.65302 28.9403ZM1.65302 30.9153V30.3052H4.94451V30.9153H1.65302Z" fill="#0774A3"/>
    <path d="M6.42327 38.2192H7.67617V38.391C7.81992 38.4079 7.96533 38.4232 8.10909 38.4381V38.2192H10.0994V38.5843C10.2939 38.5926 10.4885 38.6 10.6843 38.605V14.1914H5.58594V38.0742C5.86271 38.1262 6.14278 38.175 6.42327 38.2192ZM10.0998 37.7767H7.89304V37.1654H10.0998V37.7767ZM10.0998 36.7242H6.93963V36.1141H10.0998V36.7242ZM10.0998 35.6712H7.89304V35.0611H10.0998V35.6712ZM10.0998 34.6187H9.23888V34.0085H10.0998V34.6187ZM10.0998 33.5661H7.89304V32.956H10.0998V33.5661ZM10.0998 32.5136H9.45658V31.903H10.101L10.0998 32.5136ZM10.0998 31.4606H7.27465V30.8505H10.0998V31.4606ZM10.0998 30.4081H8.81134V29.7979H10.0998V30.4081ZM10.0998 29.3555H7.89304V28.745H10.0998V29.3555ZM10.0998 28.3025H8.81134V27.6924H10.0998V28.3025ZM10.0998 27.1773H8.1095V26.5672H10.0998V27.1773ZM10.0998 26.1247H7.89304V25.5163H10.0998V26.1247ZM10.0998 25.0718H6.93963V24.4616H10.0998V25.0718ZM10.0998 24.0192H7.89304V23.4095H10.0998V24.0192ZM10.0998 22.9667H9.23888V22.3565H10.0998V22.9667ZM10.0998 21.9137H7.89304V21.3027H10.0998V21.9137ZM10.0998 20.8611H9.45658V20.251H10.101L10.0998 20.8611ZM10.0998 19.8086H7.27465V19.1985H10.0998V19.8086ZM10.0998 18.756H8.81134V18.1455H10.0998V18.756ZM10.0998 17.7031H7.89304V17.0929H10.0998V17.7031ZM8.81134 16.0404H10.0998V16.6505H8.81134V16.0404ZM6.17128 16.0404H8.37842V16.6505H6.17128V16.0404ZM6.17128 17.0929H7.46012V17.7031H6.17128V17.0929ZM6.17128 18.1455H8.37842V18.756H6.17128V18.1455ZM6.17128 19.1985H6.84214V19.8086H6.17128V19.1985ZM6.17128 20.251H9.0216V20.8611H6.17128V20.251ZM6.17128 21.3036H7.46012V21.9137H6.17128V21.3036ZM6.17128 22.3565H8.80638V22.9667H6.17128V22.3565ZM6.17128 23.4091H7.46012V24.0192H6.17128V23.4091ZM6.17128 24.4616H6.50671V25.0718H6.17128V24.4616ZM6.17128 25.5142H7.46012V26.1247H6.17128V25.5142ZM6.17128 26.5672H7.67658V27.1773H6.17128V26.5672ZM6.17128 27.6924H8.37842V28.3025H6.17128V27.6924ZM6.17128 28.745H7.46012V29.3555H6.17128V28.745ZM6.17128 29.7979H8.37842V30.4081H6.17128V29.7979ZM6.17128 30.8505H6.84214V31.4606H6.17128V30.8505ZM6.17128 31.903H9.0216V32.5136H6.17128V31.903ZM6.17128 32.956H7.46012V33.5661H6.17128V32.956ZM6.17128 34.0085H8.80638V34.6187H6.17128V34.0085ZM6.17128 35.0611H7.46012V35.6712H6.17128V35.0611ZM6.17128 36.1141H6.50671V36.7242H6.17128V36.1141ZM6.17128 37.1666H7.46012V37.7767H6.17128V37.1666Z" fill="#0774A3"/>
    <path d="M14.1914 40.3796H14.4917V40.3594C14.3913 40.3668 14.2897 40.3726 14.1914 40.3796Z" fill="#0774A3"/>
    <path d="M11.6189 38.6179V36.9172H12.2654V38.6109C12.4733 38.6067 12.6822 38.6008 12.892 38.5931V36.916H13.5389V38.563C13.8545 38.5456 14.1713 38.5262 14.489 38.501V28.4336H9.39355V38.5493C10.1261 38.5964 10.8679 38.6193 11.6189 38.6179ZM12.8928 29.931H13.5397V31.8986H12.8928V29.931ZM12.8928 33.4241H13.5397V35.3921H12.8928V33.4241ZM11.6189 29.931H12.2654V31.8986H11.618L11.6189 29.931ZM11.6189 33.4241H12.2654V35.3921H11.618L11.6189 33.4241Z" fill="#0774A3"/>
    <path d="M18.4368 37.9987V37.2551H18.9325V37.9095C19.106 37.8777 19.2799 37.8454 19.4546 37.8116V21.6094H14.3555V38.5093C15.682 38.4093 17.0425 38.2391 18.4368 37.9987ZM18.4368 22.4608H18.9325V23.213H18.4368V22.4608ZM18.4368 23.6934H18.9325V24.4456H18.4368V23.6934ZM18.4368 24.9261H18.9325V25.6783H18.4368V24.9261ZM18.4368 26.1591H18.9325V26.9114H18.4368V26.1591ZM18.4368 27.3918H18.9325V28.144H18.4368V27.3918ZM18.4368 28.6245H18.9325V29.3771H18.4368V28.6245ZM18.4368 29.8575H18.9325V30.6098H18.4368V29.8575ZM18.4368 31.0902H18.9325V31.8424H18.4368V31.0902ZM18.4368 32.3233H18.9325V33.0763H18.4368V32.3233ZM18.4368 33.5559H18.9325V34.3082H18.4368V33.5559ZM18.4368 34.7886H18.9325V35.5408H18.4368V34.7886ZM18.4368 36.0217H18.9325V36.7739H18.4368V36.0217ZM16.6572 22.4599H17.1529V23.2122H16.6572V22.4599ZM16.6572 23.6926H17.1529V24.4448H16.6572V23.6926ZM16.6572 24.9252H17.1529V25.6775H16.6572V24.9252ZM16.6572 26.1583H17.1529V26.9106H16.6572V26.1583ZM16.6572 27.391H17.1529V28.1432H16.6572V27.391ZM16.6572 28.6236H17.1529V29.3763H16.6572V28.6236ZM16.6572 29.8567H17.1529V30.6089H16.6572V29.8567ZM16.6572 31.0894H17.1529V31.8416H16.6572V31.0894ZM16.6572 32.3224H17.1529V33.0763H16.6572V32.3224ZM16.6572 33.5551H17.1529V34.3073H16.6572V33.5551ZM16.6572 34.7878H17.1529V35.54H16.6572V34.7878ZM16.6572 36.0208H17.1529V36.7731H16.6572V36.0208ZM16.6572 37.2535H17.1529V38.0057H16.6572V37.2535ZM14.8776 22.4599H15.3733V23.2122H14.8776V22.4599ZM14.8776 23.6926H15.3733V24.4448H14.8776V23.6926ZM14.8776 24.9252H15.3733V25.6775H14.8776V24.9252ZM14.8776 26.1583H15.3733V26.9106H14.8776V26.1583ZM14.8776 27.391H15.3733V28.1432H14.8776V27.391ZM14.8776 28.6236H15.3733V29.3763H14.8776V28.6236ZM14.8776 29.8567H15.3733V30.6089H14.8776V29.8567ZM14.8776 31.0894H15.3733V31.8416H14.8776V31.0894ZM14.8776 32.3224H15.3733V33.0763H14.8776V32.3224ZM14.8776 33.5551H15.3733V34.3073H14.8776V33.5551ZM14.8776 34.7878H15.3733V35.54H14.8776V34.7878ZM14.8776 36.0208H15.3733V36.7731H14.8776V36.0208ZM14.8776 37.2535H15.3733V38.0057H14.8776V37.2535Z" fill="#0774A3"/>
    <path d="M36.8717 16.4191C37.4223 16.4224 37.8982 16.5104 38.4001 16.6033C38.5001 16.6219 38.6029 16.6409 38.7099 16.6599C39.7195 16.8388 40.4998 17.2717 41.0302 17.9467C41.189 18.1501 41.2705 18.4032 41.2602 18.6611C41.2499 18.9189 41.1485 19.1648 40.974 19.3549C40.8694 19.4877 40.7361 19.5951 40.5841 19.6692C40.4321 19.7433 40.2653 19.7822 40.0962 19.7829C39.9586 19.7826 39.8221 19.7574 39.6935 19.7085C39.456 19.6184 39.2039 19.5734 38.9499 19.5759C38.6952 19.5811 38.4414 19.6088 38.1915 19.6585C39.4828 20.3426 40.1388 21.3109 40.8315 22.3362L40.9501 22.5113C41.0644 22.6767 41.1315 22.8702 41.1439 23.0709C41.1564 23.2716 41.1138 23.4719 41.0207 23.6502C40.8241 24.022 40.4255 24.2529 39.9806 24.2529C39.9328 24.2529 39.8851 24.2501 39.8376 24.2446L39.7963 24.2529L39.7348 24.2281C39.6173 24.2039 39.5044 24.161 39.4006 24.1009L39.3085 24.0707C39.3777 24.2285 39.4373 24.3903 39.4869 24.5553C39.5283 24.5318 39.5711 24.5108 39.615 24.4925C40.0913 24.3136 40.5626 24.1529 41.0823 24.1529C41.787 24.1529 42.4004 24.4632 42.8561 25.051C43.152 25.4335 43.3655 25.8732 43.4831 26.3423L43.5017 26.3378C43.7533 26.2754 44.0388 26.2047 44.3796 26.2047C44.5059 26.2048 44.632 26.2149 44.7567 26.2349C45.5862 26.3704 45.9997 26.7872 46.2025 27.1127C46.2327 27.1639 46.2603 27.2165 46.2851 27.2705C46.3929 26.4437 46.4481 25.6109 46.4504 24.7771C46.4504 8.45057 36.1748 0 23.4987 0C15.3571 0 8.20655 3.48689 4.13184 10.3066L6.76735 8.25394V13.161H11.7133V13.2527C14.3942 9.88771 18.5243 7.72849 23.1612 7.72849C28.702 7.72849 33.5227 10.8085 36.0083 15.3496L36.1421 15.3971C36.352 15.4749 36.5337 15.6139 36.6637 15.7961C36.7938 15.9783 36.8662 16.1953 36.8717 16.4191Z" fill="#0774A3"/>
    <path d="M22.8234 15.4432L19.2833 16.6234L19.5311 17.2455C19.5377 17.2615 19.5392 17.2792 19.5352 17.2961C19.5312 17.3129 19.5221 17.3281 19.509 17.3395C19.496 17.3508 19.4797 17.3578 19.4624 17.3594C19.4452 17.361 19.4279 17.3572 19.413 17.3484L18.4393 16.792H17.9337V16.4549L16.7539 15.7807C16.8494 15.6849 16.9747 15.6244 17.1091 15.6094C17.2435 15.5944 17.3791 15.6257 17.4933 15.6981L18.018 16.0323L18.1332 14.8802C18.1374 14.8383 18.1541 14.7987 18.1811 14.7664C18.2082 14.7342 18.2444 14.7109 18.2849 14.6996C18.3254 14.6882 18.3684 14.6894 18.4083 14.7029C18.4482 14.7164 18.483 14.7416 18.5083 14.7753L19.1982 15.6952L21.8952 14.0094L20.7154 14.3465L16.8382 12.1571L17.0691 12.0183C17.2618 11.9028 17.4765 11.8289 17.6995 11.8013C17.9224 11.7737 18.1487 11.793 18.3637 11.858L23.244 13.3369L25.9414 11.9882C25.9414 11.9882 26.6156 11.8196 26.9527 12.1571C26.9527 12.1571 27.9643 12.3256 27.6272 12.8313C27.2902 13.3369 25.0983 14.5171 25.0983 14.5171L27.6281 17.2137V18.0564L22.8234 15.4432Z" fill="#0774A3"/>
  </g>
  <defs>
    <clipPath id="clip0_4207_3808">
      <rect width="45.9033" height="65.2743" fill="white" transform="translate(0.548828)"/>
    </clipPath>
  </defs>
</svg>