<svg xmlns="http://www.w3.org/2000/svg" width="53" height="53" viewBox="0 0 53 53" fill="none">
  <path d="M26.5 52C40.5831 52 52 40.5831 52 26.5C52 12.4167 40.5831 1 26.5 1C12.4167 1 1 12.4167 1 26.5C1 40.5831 12.4167 52 26.5 52Z" stroke="#0774A3" stroke-linecap="round" stroke-linejoin="round"/>
  <path d="M26.5833 48.1667C38.7795 48.1667 48.6667 38.2795 48.6667 26.0833C48.6667 13.887 38.7795 4 26.5833 4C14.387 4 4.5 13.887 4.5 26.0833C4.5 38.2795 14.387 48.1667 26.5833 48.1667Z" fill="#0774A3" stroke="#0774A3" stroke-width="3.3125" stroke-linecap="round" stroke-linejoin="round"/>
  <path d="M22.25 20.25C22.25 14.125 31.875 14.125 31.875 20.25C31.875 24.625 27.5 23.7498 27.5 28.9998" stroke="white" stroke-width="2.625" stroke-linecap="round" stroke-linejoin="round"/>
  <path d="M27.5 36.0194L27.5175 36" stroke="white" stroke-width="2.625" stroke-linecap="round" stroke-linejoin="round"/>
</svg>