<svg width="251" height="150" viewBox="0 0 251 150" fill="none" xmlns="http://www.w3.org/2000/svg">
<g clip-path="url(#clip0_4208_3887)">
<rect x="0.5" width="250" height="150" rx="16" fill="#4EADD7"/>
<g style="mix-blend-mode:multiply" opacity="0.1">
<path d="M-35.1423 120.612C-35.0087 120.752 -34.8445 120.925 -34.657 121.145C-33.8225 122.12 -33.4536 122.557 -32.9193 122.507C-32.4489 122.379 -32.9042 121.859 -32.6047 121.358C-32.3052 120.856 -32.3666 119.165 -32.3491 118.272C-32.3565 117.348 -32.2503 116.426 -32.0328 115.527C-31.6965 115.239 -31.4515 115.709 -31.1569 116.225C-30.9527 116.554 -30.8742 116.946 -30.9359 117.329C-30.9522 117.621 -31.0158 117.915 -31.0313 118.249C-31.0612 118.842 -30.8899 119.12 -30.6334 119.241C-30.5551 119.274 -30.4724 119.294 -30.3881 119.302C-30.1473 119.145 -29.8905 119.015 -29.622 118.913C-28.6628 118.705 -28.727 118.488 -28.1665 118.027C-27.4587 117.462 -28.0334 117.305 -27.6193 117.165C-27.3773 117.131 -27.131 117.141 -26.8929 117.196C-26.6243 117.251 -26.3475 117.252 -26.0787 117.198C-25.1882 116.562 -25.6416 115.053 -25.3249 114.302C-25.2528 114.119 -25.1346 113.958 -24.9819 113.834C-24.8291 113.711 -24.6471 113.629 -24.4533 113.596C-23.1461 113.241 -22.8723 113.895 -22.5682 115.051C-22.5247 115.195 -22.5019 115.345 -22.5004 115.495C-22.484 116.161 -23.0051 116.063 -22.9193 116.476C-22.8282 116.846 -22.685 117.201 -22.494 117.53C-22.2488 117.989 -21.9661 118.426 -21.6489 118.837C-20.9832 119.72 -19.9282 119.571 -19.2202 120.511C-18.5122 121.451 -18.0736 122.183 -17.1734 122.012C-16.8714 121.93 -16.7422 121.799 -16.7241 121.592C-16.7655 121.107 -16.8943 120.634 -17.1043 120.195C-17.1393 120.067 -17.1798 119.918 -17.2162 119.784C-17.5772 118.44 -17.7354 117.049 -17.6855 115.658C-17.697 115.445 -17.7226 115.233 -17.7623 115.024C-18.0042 113.759 -18.5121 112.559 -19.2523 111.505C-19.596 111.2 -20.8571 111.314 -21.8003 110.917C-21.9412 110.858 -22.0754 110.784 -22.2008 110.696C-22.792 110.283 -22.8273 109.665 -22.3463 108.97C-21.7789 108.124 -21.6154 108.08 -21.5375 106.92C-21.456 105.872 -21.7797 104.859 -21.2845 104.724C-20.4929 104.78 -20.6546 105.085 -20.6271 106.104C-20.6227 106.257 -20.6106 106.418 -20.5981 106.601C-20.5408 107.202 -20.4306 107.353 -20.2686 107.362C-20.1065 107.371 -19.7612 107.155 -19.3441 107.398C-19.2527 107.451 -19.1514 107.486 -19.0463 107.499C-18.9412 107.513 -18.8344 107.505 -18.7325 107.476C-18.1631 107.321 -17.5602 106.625 -17.1826 105.745C-16.665 104.541 -17.2754 103.744 -16.6699 102.511C-16.0645 101.277 -13.7699 97.8865 -12.6905 97.5926C-11.5572 97.4968 -11.7929 98.1353 -11.0593 98.2121C-10.3257 98.289 -9.98444 98.0578 -10.3496 99.4123C-10.3388 99.4519 -10.3699 99.5136 -10.3839 99.5599C-10.7692 100.899 -11.5879 102.951 -12.0837 104.549C-12.2563 105.165 -12.3915 105.372 -12.535 105.411C-13.8682 105.417 -13.234 106.34 -12.7021 109.759C-12.5591 110.968 -12.3071 112.161 -11.9493 113.325C-11.6995 114.036 -11.3942 114.726 -11.0361 115.39C-10.2789 116.96 -8.77626 118.396 -8.91493 119.567C-8.92757 119.702 -8.96583 119.833 -9.02764 119.954C-9.62451 121.18 -9.88502 122.059 -9.22962 122.865C-8.82972 123.357 -8.48638 123.465 -8.23385 123.397C-8.152 123.373 -8.07612 123.332 -8.01135 123.277C-7.94658 123.222 -7.8944 123.153 -7.85836 123.076C-7.82006 123.015 -7.76997 122.962 -7.71099 122.921C-7.65203 122.879 -7.58532 122.849 -7.51484 122.834C-7.4079 122.805 -7.29576 122.802 -7.18743 122.825C-7.07911 122.848 -6.97761 122.895 -6.89108 122.964C-6.80456 123.033 -6.73544 123.122 -6.68921 123.222C-6.64298 123.323 -6.62097 123.433 -6.62494 123.544C-6.52497 124.458 -5.71659 124.36 -4.40224 125.066C-3.08789 125.772 -3.75447 125.863 -3.34398 126.862C-3.2968 127.036 -3.2181 127.169 -3.16954 127.288C-2.85969 127.879 -2.60811 127.885 -1.86921 128.157C-1.63163 128.27 -1.36332 128.3 -1.10682 128.242C-0.765176 128.149 -0.476124 127.863 0.171212 127.565C1.20434 127.081 0.11705 126.76 0.718525 126.352C1.93879 126.068 2.13469 125.908 2.23751 125.407C2.4977 124.272 2.47141 123.668 3.24069 123.426C4.00997 123.185 4.18183 124.324 4.87852 124.363C5.25117 124.384 5.45588 124.53 5.62917 124.483C5.80247 124.436 5.83632 124.267 5.91847 123.729C5.93398 123.63 5.94227 123.53 5.94334 123.43C5.9312 122.369 5.17101 121.374 4.69732 120.807C4.58824 120.695 4.44746 120.619 4.29392 120.589C4.14039 120.56 3.98149 120.578 3.83865 120.642C3.67526 120.686 3.48713 120.737 3.31202 120.817C3.13394 120.894 2.9511 120.96 2.76464 121.014C2.61108 121.057 2.45236 121.078 2.29292 121.078C2.11693 121.073 1.94076 121.078 1.76543 121.094C1.67631 121.119 1.70777 121.195 1.38633 121.421C0.876242 121.794 0.897681 122.224 -0.0826853 122.491C-0.663779 122.623 -0.907744 122.684 -1.08103 122.731C-2.91304 123.23 -3.02194 123.142 -4.19102 121.642C-5.34346 120.163 -4.47424 120.894 -4.54825 120.33C-4.57242 120.105 -4.58417 119.879 -4.58351 119.653C-4.62808 119.246 -4.73635 118.848 -4.90435 118.475C-5.29276 117.458 -5.37041 117.974 -6.07549 117.592C-6.7605 117.292 -7.31999 116.764 -7.65779 116.097C-8.03957 115.339 -7.92739 115.107 -8.38503 113.875C-8.84266 112.644 -9.08842 112.737 -9.67935 111.68C-9.68968 111.66 -9.69565 111.638 -9.69687 111.616C-10.2491 110.623 -10.276 110.231 -9.73133 110.083C-9.0611 109.927 -9.06208 111.134 -8.07006 112.024C-7.07804 112.913 -6.90721 112.388 -5.52069 113.75C-5.30065 114.028 -5.00235 114.235 -4.66403 114.343C-4.32572 114.451 -3.96285 114.455 -3.62211 114.355C-3.05765 114.201 -2.45891 113.841 -1.70089 113.598C-1.48798 113.54 -1.30973 113.491 -1.15624 113.449C-0.165969 113.18 -0.294771 113.39 0.335835 113.245C1.06548 113.073 1.36726 113.576 1.47565 114.775L1.48374 114.805C1.52426 115.249 1.64243 115.684 1.83289 116.087C2.07337 116.547 2.27486 117.026 2.43531 117.519C2.86723 118.89 2.76768 118.114 3.83982 118.966C4.40446 119.418 4.66276 119.508 4.9648 119.425C5.26683 119.343 5.5181 119.152 6.08167 118.956C6.24746 118.896 6.40375 118.812 6.54579 118.708C6.93346 118.374 6.31881 118.03 6.15081 117.257C5.95497 116.342 5.54756 116.565 4.69104 115.607L4.54661 115.428C3.58126 114.266 4.55111 114.39 5.01235 113.525L5.03895 113.486C5.46552 112.689 5.23945 113.011 4.27781 111.608C4.26973 111.579 4.2562 111.529 4.20085 111.502C3.14342 109.923 4.06496 110.475 4.56385 109.983C5.06274 109.491 5.48587 109.306 5.60422 108.296C5.72259 107.285 4.79536 107.415 5.69837 107.02C6.68865 106.75 7.24738 107.396 8.16544 108.619C8.61749 109.225 8.58584 109.499 8.36431 109.741C7.92689 110.06 7.57237 110.479 7.33043 110.963C6.81546 112.236 6.95127 111.524 7.57924 112.268C7.60115 112.299 7.62683 112.328 7.6557 112.353C7.72211 112.422 7.8065 112.472 7.89941 112.495C7.9923 112.519 8.08996 112.516 8.18128 112.487C8.92176 112.237 9.17157 112.217 9.45767 112.506C9.63992 112.692 9.77624 112.918 9.85575 113.166C9.93527 113.414 9.95577 113.677 9.91569 113.934C9.89472 114.541 9.74816 115.272 9.75813 116.169C9.75313 117.303 9.78363 117.571 10.1223 117.995C10.3189 118.228 10.6149 118.515 11.0477 119.03C12.2523 120.446 12.589 120.589 13.5294 120.976C14.4699 121.364 15.601 121.045 16.3054 121.092C17.0711 121.222 17.8548 121.2 18.6121 121.028C20.1327 120.47 21.5617 119.688 22.8522 118.709C22.988 118.594 23.1447 118.506 23.3137 118.45C23.8732 118.298 23.9129 119.186 24.4247 119.914C25.036 120.811 25.3276 120.769 26.3003 120.552C26.408 120.538 26.5101 120.496 26.5967 120.43C26.6833 120.365 26.7514 120.278 26.7942 120.178C26.9416 119.782 26.5989 119.167 26.2652 118.508C26.1654 118.307 26.0173 118.132 25.8342 118.001C25.651 117.87 25.4384 117.786 25.2151 117.757C24.9959 117.695 24.8263 117.618 24.7701 117.373C24.6272 116.848 24.153 116.61 24.8362 116.424C25.0379 116.374 25.2425 116.336 25.4488 116.311C26.9827 116.085 27.9712 116.98 27.82 118.027C27.8335 118.076 27.806 118.131 27.8073 118.195C27.7191 119.16 28.0562 120.164 28.1608 121.955C28.172 122.132 28.1849 122.278 28.2051 122.41C28.2155 122.693 28.3266 122.963 28.5185 123.171C28.801 123.408 29.2255 123.345 29.7104 124.032C30.5245 125.167 30.9917 125.066 31.7937 125.257C32.3171 125.227 32.3532 125.105 32.4369 125.002C32.5483 124.838 32.7189 124.723 32.9132 124.681C34.1433 124.511 33.6026 125.025 34.3951 125.123C34.5943 125.148 34.7964 125.134 34.9906 125.084C35.3402 124.989 35.6405 124.765 35.8302 124.456C35.8617 124.407 35.8885 124.355 35.9104 124.301C36.1424 123.845 35.9147 123.673 35.2364 122.842L35.1981 122.799C34.4829 121.93 34.9353 121.833 35.0493 120.435C35.1426 119.059 34.8532 119.149 35.0231 118.64C35.3814 118.393 35.7665 118.889 36.2425 119.212C36.5462 119.399 36.8359 119.608 37.1095 119.837C37.501 120.209 37.7509 120.705 37.816 121.24C37.8573 121.392 37.8842 121.55 37.8968 121.713C38.1036 122.97 38.2009 124.242 38.1876 125.516C38.1382 126.487 38.1834 126.145 38.5581 126.506C38.586 126.527 38.6108 126.553 38.6319 126.581C39.0556 127.083 39.1328 127.679 39.6779 128.567C40.223 129.456 40.0363 129.22 40.7956 129.215C41.5548 129.211 41.3365 129.424 41.9445 130.407C42.0404 130.523 42.1 130.663 42.116 130.812C42.1319 130.961 42.1035 131.112 42.0342 131.245C41.8549 131.543 41.488 131.739 41.5963 132.156C41.629 132.311 41.6933 132.457 41.785 132.586C41.8768 132.715 41.9942 132.823 42.1298 132.904C42.3849 133.08 42.7201 133.276 43.1606 133.565C44.0898 134.184 44.0363 133.832 43.5806 134.307C43.457 134.431 43.3503 134.571 43.2632 134.723C42.9013 135.328 42.584 135.958 42.3141 136.609C41.9334 137.399 41.8107 136.948 40.9471 137.8C40.0835 138.652 40.4271 138.41 40.3386 139.062C40.3078 139.234 40.3259 139.412 40.3909 139.575C40.4559 139.737 40.5652 139.879 40.7063 139.983C40.8588 140.132 41.0527 140.298 41.2857 140.548C41.6636 140.94 41.8549 141.037 42.0183 140.992C42.1817 140.948 42.2844 140.797 42.4771 140.607C42.9029 140.169 43.264 139.674 43.5493 139.134C43.7271 138.602 44.0925 138.153 44.5774 137.87C45.4143 137.291 45.4957 136.418 45.8853 135.701C45.9451 135.6 45.9947 135.494 46.0331 135.384C46.143 135.045 46.0468 134.848 45.8427 134.43C45.7698 134.28 45.6911 134.089 45.5891 133.851C45.1574 132.793 45.5703 133.489 45.9057 132.318C46.0851 131.49 46.0893 130.634 45.918 129.804C45.8485 129.293 45.7003 128.795 45.4789 128.328C45.3067 128.008 45.1475 127.775 45.0044 127.543C44.7775 127.166 44.6599 126.734 44.6647 126.295C44.6525 126.261 44.643 126.226 44.6364 126.191C44.6202 126.132 44.6054 126.077 44.5919 126.028C44.5103 125.337 44.233 125.413 44.224 124.5C44.1949 123.568 44.2489 122.635 44.385 121.712C44.4182 121.505 44.4882 121.306 44.5918 121.124C44.9589 120.519 43.4963 120.109 42.7091 120.323C41.9218 120.537 41.5584 121.078 41.4476 122.214C41.3882 122.892 41.4221 123.576 41.5485 124.245C41.3166 124.409 40.7785 124.034 40.4267 123.582C40.2798 123.407 40.1716 123.203 40.1092 122.983C40.0522 122.479 40.0529 121.97 40.1112 121.466C40.1337 121.15 40.0871 120.832 39.9748 120.536C39.6655 119.732 39.3944 120.162 38.9167 119.345C38.9033 119.296 38.856 119.239 38.8201 119.185C38.2881 118.15 37.8054 117.685 36.5451 115.869C36.3859 115.655 36.2426 115.429 36.1164 115.193C35.3964 113.858 35.8589 113.29 36.3537 112.9C36.8485 112.51 37.2719 112.757 37.3357 112.053C37.3436 111.936 37.3437 111.819 37.3358 111.702C37.302 110.914 36.6649 110.391 36.2556 109.688C36.1341 109.488 36.038 109.273 35.9696 109.048C35.9267 108.895 35.9033 108.737 35.9001 108.578C35.8512 107.187 35.6465 104.892 36.1396 104.183C36.6328 103.475 37.9981 102.922 39.1509 102.566C40.3036 102.209 39.828 102.982 40.8576 103.346C41.8872 103.709 43.129 103.562 44.4842 103.422C45.8395 103.282 44.9338 103.666 45.9504 103.884C46.1838 103.953 46.4313 103.959 46.6678 103.902C47.0671 103.691 47.5242 103.615 47.9704 103.685C49.0266 103.892 48.7514 105.44 49.4689 106.123C50.1865 106.805 50.2547 106.196 50.8097 107.14C50.9025 107.287 50.9632 107.452 50.9881 107.624C51.0129 107.796 51.0012 107.971 50.9538 108.138C50.7579 108.624 50.4782 109.071 50.1273 109.459C49.831 109.875 50.1437 110.242 50.5107 110.769C50.7346 111.061 50.9184 111.381 51.0571 111.721C51.4761 112.83 51.8569 112.705 52.8741 112.535C53.6564 112.322 53.853 111.54 53.7471 110.643C53.7099 110.354 53.6515 110.067 53.5725 109.787C53.496 109.451 53.3275 109.143 53.0859 108.898C52.8065 108.634 52.5784 108.557 52.6227 107.998C52.6449 107.688 52.6895 107.559 52.7687 107.538C52.9321 107.493 53.2245 107.903 53.7154 108.163C53.9584 108.293 54.1181 108.372 54.2419 108.339C54.4746 108.275 54.5293 107.792 54.6603 106.555C54.7087 106.156 54.722 105.754 54.7 105.353C54.6356 104.471 54.3203 104.094 54.0542 103.273C54.0137 103.125 53.9814 103.006 53.9229 102.889C53.544 101.978 53.4179 100.982 53.5578 100.005C53.6099 99.3365 53.6604 98.9558 53.6862 98.6988C53.7503 98.192 53.7139 98.1168 53.306 97.3025C53.0339 96.7915 52.7295 96.2788 52.5001 95.7881C52.1759 95.1052 51.9926 94.4903 52.2763 94.0674C52.3657 93.9196 52.5059 93.8095 52.6707 93.7579C53.6123 93.6611 53.7978 93.5415 53.9933 93.2436C54.7395 91.9314 55.0035 90.3996 54.7396 88.9133C54.4445 87.4779 54.4242 87.4037 55.0767 86.6942C55.2215 86.5274 55.4135 86.4084 55.6273 86.3528C55.8893 86.299 56.156 86.271 56.4235 86.269C56.7531 86.2546 57.0804 86.2065 57.4002 86.1254C57.6564 86.0549 57.9044 85.957 58.1398 85.8336C58.8898 85.4709 59.5984 85.0283 60.2535 84.5136C61.0458 83.9469 60.7022 83.4075 61.0893 82.2704C61.4764 81.1332 62.1008 80.8675 63.5005 79.8163C64.9002 78.7651 64.987 79.0446 65.9993 77.801C67.0115 76.5575 66.6896 75.6878 66.8175 74.5947C66.8857 74.0443 67.9102 73.6855 68.2854 74.1259C68.458 74.2752 68.5759 74.4778 68.6205 74.7017C68.665 74.9255 68.6338 75.1578 68.5315 75.3619C68.3907 75.6924 68.3067 76.0443 68.2831 76.4028C68.2426 76.9156 68.369 77.4278 68.6434 77.863C68.7468 78.1389 68.8079 78.4289 68.8244 78.7231C68.8382 78.7564 68.8477 78.7914 68.8527 78.8271C68.9032 79.5792 68.6605 79.8208 67.9921 80.0028C67.5861 80.1133 67.0253 80.2022 66.2907 80.3756C64.3993 80.8905 65.1571 81.115 63.8804 81.7391C63.6894 81.844 63.4874 81.9276 63.2781 81.9882C62.8177 82.0551 62.7654 82.1757 62.378 82.7651C61.5534 84.0533 61.9426 84.3888 61.5761 85.6799C61.3561 86.4737 61.5802 86.652 61.9775 86.8417C62.2875 86.9573 62.5786 87.1182 62.8415 87.3191C63.6436 87.9995 65.4637 89.3122 66.9083 89.4029C68.4212 89.5401 69.9463 89.4076 71.4128 89.0115C73.2515 88.5375 72.8438 89.5207 74.8891 89.0436C75.6577 88.8341 76.4063 88.5573 77.1263 88.2164C77.6158 87.9586 78.1265 87.743 78.6527 87.5721C78.8719 87.5048 79.1033 87.4872 79.3302 87.5207C80.2928 87.716 81.0097 87.8293 80.9688 88.7339C80.9574 88.9005 80.9567 89.0677 80.9667 89.2344C80.9787 89.5715 81.0089 89.526 80.6807 89.8441C80.3525 90.1621 79.3451 90.5055 78.3796 90.7684C78.0082 90.8695 77.6418 90.9693 77.3253 91.0182C76.4544 91.2181 75.8741 90.6103 75.4581 90.7235C75.3847 90.7523 75.3182 90.7962 75.2629 90.8525C75.2077 90.9088 75.1649 90.9761 75.1375 91.0501C74.7209 91.9028 74.4537 91.566 74.3371 92.7785C74.3032 92.9712 74.3228 93.1696 74.394 93.3518C74.4652 93.5341 74.5852 93.6933 74.7408 93.812C75.242 94.2074 76.2891 94.5764 78.0332 95.4152C80.86 96.773 79.9643 96.8041 81.6471 96.8512C83.3299 96.8983 82.9344 96.7932 84.6878 96.8849C86.4412 96.9766 88.5703 98.487 90.0796 99.1079C91.5888 99.7287 92.241 100.62 92.1857 101.725C92.1995 102.32 92.3075 102.908 92.5058 103.468C92.5503 103.631 92.5988 103.809 92.6473 103.988C92.9983 105.121 93.46 106.367 93.7302 107.203C94.2089 108.668 94.1346 108.688 95.4272 109.725C96.345 110.459 96.822 110.589 97.535 110.395C97.8659 110.301 98.1888 110.181 98.501 110.037C98.6644 109.992 98.7864 109.932 98.9052 109.9C99.8212 109.65 99.7773 110.29 100.867 111.03C102.084 111.848 102.067 113.23 102.722 114.248C103.377 115.267 104.241 114.946 105.008 114.833C105.775 114.72 105.603 116.607 106.455 117.061C107.307 117.515 108.572 118.33 109.799 118.422C111.025 118.513 110.906 118.913 112.298 119.065C113.429 119.194 114.235 119.384 115.483 119.044C115.813 118.95 116.138 118.839 116.456 118.71C118.373 117.938 118.342 117.824 118.726 117.028C118.765 116.935 118.794 116.838 118.812 116.739C118.849 116.388 118.764 116.036 118.573 115.74C118.426 115.367 118.32 114.978 118.257 114.582C117.986 113.097 118.552 111.31 118.966 110.464C119.379 109.618 118.77 107.539 118.515 106.545C118.261 105.55 118.774 104.682 119.416 103.523C120 102.465 119.822 102.125 119.738 101.308C119.711 101.209 119.714 101.102 119.71 100.991C119.642 99.8984 118.727 99.3336 118.603 98.5855C118.48 97.8375 117.017 97.6239 116.318 97.3198L116.126 97.223C115.993 97.162 115.885 97.0559 115.822 96.9235C115.758 96.791 115.744 96.6405 115.78 96.4982C115.861 96.1932 115.973 95.8971 116.114 95.6149C116.472 94.8207 115.855 92.8293 115.787 91.8747C115.719 90.9201 115.473 90.721 115.923 89.9921C116.565 88.8643 117.082 87.6697 117.464 86.4296C117.476 86.3571 117.482 86.3022 117.486 86.2585C117.522 85.5681 116.859 84.6956 116.517 84.2994C116.175 83.9032 116.082 84.4604 115.616 83.8053C115.588 83.7748 115.564 83.74 115.546 83.7022C115.021 82.8878 115.178 81.6272 115.997 81.335C116.44 81.2249 116.899 81.1917 117.353 81.2371C117.747 81.2646 118.143 81.2409 118.53 81.1665C119.325 80.5673 119.201 79.7234 119.413 78.5488C119.421 78.3455 119.496 78.1507 119.627 77.9953C119.759 77.84 119.938 77.7333 120.137 77.6922C120.291 77.6504 120.479 77.5991 120.703 77.5808C120.949 77.5474 121.193 77.4987 121.434 77.4348C121.588 77.393 121.751 77.3486 121.929 77.3C122.109 77.228 122.293 77.1656 122.479 77.113C123.321 76.8839 122.976 77.3342 123.432 77.8588C123.963 78.4589 124.673 78.1964 125.688 78.723C125.796 78.7866 125.916 78.8278 126.04 78.8443C126.164 78.8607 126.29 78.852 126.411 78.8187C126.986 78.6623 127.454 77.9604 128.346 77.6219C128.995 77.4659 129.67 77.4395 130.33 77.5445C130.894 77.6424 131.472 77.6417 132.036 77.5425C133.348 76.8715 135.648 74.0862 136.26 73.5207C136.872 72.9552 136.864 71.1702 137.75 69.7164C138.636 68.2627 139.28 68.4385 139.365 67.2665C139.445 66.6604 139.488 66.0501 139.495 65.4388C139.459 65.1056 139.381 64.7784 139.262 64.4652C139.006 63.7423 138.734 63.2314 138.504 62.5814C138.351 62.1592 138.233 61.7254 138.151 61.2841C137.867 59.8721 138.414 58.3457 138.197 57.5486C137.733 56.7144 137.176 55.9348 136.538 55.2241C136.15 54.7554 135.744 54.2597 135.276 53.7915C134.065 52.4511 132.762 51.2209 132.02 50.9551C130.523 50.3999 129.113 50.3372 128.549 49.7726C128.498 49.727 128.454 49.6747 128.417 49.6173C128.106 49.1009 128.265 48.4141 128.115 47.8645L128.106 47.8299C128.039 47.6002 127.898 47.399 127.705 47.2581C127.376 47.0073 126.947 46.6403 126.51 46.3071C125.931 45.8797 125.32 45.5302 124.823 45.6177C124.549 45.6706 124.295 45.7968 124.087 45.9829C123.874 46.151 123.629 46.2739 123.367 46.344C123.112 46.4082 122.853 46.4486 122.591 46.4647C120.946 46.5936 120.967 46.6728 117.559 47.2443C114.152 47.8157 111.74 46.2066 109.318 47.1534C108.963 47.2961 108.6 47.418 108.231 47.5184C107.773 47.6477 107.303 47.7276 106.828 47.7568C106.534 47.7586 106.242 47.7885 105.954 47.846C105.727 47.9124 105.515 48.0207 105.328 48.1652C104.319 48.9718 104.692 48.5457 104.585 49.8302C104.554 50.0591 104.569 50.2918 104.627 50.5152C104.762 51.0103 105.184 50.9966 105.441 51.8415C105.519 52.0568 105.531 52.2908 105.475 52.513C105.304 53.0381 104.52 53.225 103.424 53.7147C101.959 54.3477 101.912 54.0201 100.922 55.5607C99.9322 57.1013 99.4579 57.9963 98.2301 58.9953C98.076 59.1234 97.8976 59.219 97.7057 59.2764C96.7154 59.546 95.9333 58.2166 95.3287 57.5197C94.8186 56.9353 94.5802 56.7236 93.6939 56.9649C93.2484 57.0938 92.8114 57.2501 92.3853 57.4329C90.3745 58.2516 91.9975 59.017 91.2231 59.7862C90.4486 60.5555 89.8299 61.2718 87.4469 62.0323C86.6493 62.2866 86.2582 62.3931 86.0155 62.4592C85.5204 62.594 85.6442 62.5603 84.3455 63.2011C82.5885 64.073 80.0239 64.2447 78.6022 62.9884C78.2298 62.6758 77.8983 62.3176 77.6152 61.9222C77.2563 61.3658 77.2961 60.9454 77.2311 60.277C77.1962 59.7973 77.3349 59.584 77.6221 59.5058C78.1346 59.4584 78.6508 59.4676 79.1613 59.5335C80.3096 59.3166 80.1704 58.5514 80.1501 57.5198C80.1495 57.4157 80.1373 57.312 80.1138 57.2106C80.1138 57.2106 80.1044 57.176 80.103 57.171C79.8509 56.2451 78.5107 56.0888 78.015 55.3622C76.5569 55.0593 75.0799 54.8555 73.5942 54.7522C73.0347 54.9046 72.9558 56.3141 71.7926 57.9019C71.2986 58.5683 70.9978 58.8895 70.7106 58.9677C70.4235 59.0459 69.5921 58.1607 69.1235 57.182C68.8007 56.5041 68.6313 55.7843 68.8881 55.3209C69.5357 54.2032 69.5173 53.0222 71.5338 51.6382C71.9147 51.3615 72.3384 51.1491 72.788 51.0095C73.0444 50.9399 73.3095 50.9071 73.5752 50.9122C73.8087 50.9217 74.0423 50.8992 74.2697 50.8455C74.6443 50.724 74.9867 50.5199 75.2718 50.2482C76.831 48.9036 75.6612 48.9243 77.1736 47.6031C77.4341 47.3559 77.748 47.1721 78.0911 47.0661C79.0813 46.7965 79.7966 47.6654 80.996 47.7537C82.3034 47.887 82.7173 49.2901 82.9859 50.5891C83.0479 50.8168 83.0703 51.0554 83.1147 51.2773C83.3864 52.7244 81.0278 53.2229 80.5584 54.1751C80.4396 54.3863 80.3992 54.6328 80.4447 54.8709L80.4528 54.9006C80.5876 55.3957 81.2081 55.7214 81.788 56.1325C82.6119 56.6581 85.71 57.2346 85.7239 56.231C85.7498 54.7242 86.7036 53.2466 86.637 52.2595C86.5704 51.2725 86.7707 51.0903 88.244 50.5243C88.5146 50.4241 88.7284 50.3499 88.8968 50.304C89.6345 50.1032 89.4728 50.4663 89.6939 51.2783C89.7232 51.3866 89.7409 51.4976 89.7468 51.6096C89.8216 52.3923 89.3939 52.8332 89.3887 53.3026C89.3896 53.3251 89.3956 53.3471 89.4063 53.367C89.5771 53.7991 91.1328 54.1414 91.9696 53.9136C92.9614 53.1809 93.9401 50.5052 93.7714 49.28C93.6798 48.7583 93.5404 48.2462 93.3549 47.75C93.1013 47.0532 92.8734 46.392 93.0411 45.8943C93.3394 45.0366 94.4202 44.6891 95.7115 43.5132C96.6106 42.694 96.9811 43.5079 96.7296 44.5178C96.6016 45.0055 96.3597 45.456 96.0237 45.8321C94.8575 47.0963 95.05 47.3736 94.9499 47.9434C94.9179 48.1356 94.928 48.3324 94.9793 48.5204L94.9914 48.5649C95.2799 49.354 95.7782 50.0495 96.4326 50.5765C97.7098 51.771 98.0337 52.1988 99.4299 51.8186C100.915 51.4142 101.282 51.2771 101.914 50.3551C102.623 49.327 102.653 48.8297 102.381 48.0262L102.307 48.0091C101.923 47.9063 101.486 47.3552 101.198 46.6517C100.776 45.6073 100.683 44.2499 101.579 43.4793C103.152 42.1469 102.7 39.7811 103.537 39.2234C104.583 38.9065 105.589 40.1006 106.388 40.2607C106.982 40.1684 107.542 39.9262 108.015 39.557C108.45 39.2246 108.937 38.9679 109.457 38.7975C110.974 38.5069 110.576 40.7584 112.201 41.8798C112.822 42.3063 113.032 42.3928 113.2 42.347C113.565 42.1253 116.582 43.362 117.866 44.6399C118.014 44.8354 118.217 44.9824 118.449 45.0623C118.681 45.1421 118.932 45.1512 119.169 45.0882C119.922 44.8833 120.672 44.0249 121.555 43.46C122.935 42.5524 123.841 42.9866 124.872 41.1476C125.697 39.6677 126.284 39.1675 126.092 38.2466C126.025 37.9558 125.92 37.675 125.78 37.4116C124.969 35.84 124.053 33.8238 122.276 32.9994C121.976 32.8152 121.621 32.7424 121.273 32.7937C121.034 32.8949 120.832 33.0668 120.694 33.2863C120.52 33.504 116.384 33.96 115.204 34.063C115.055 34.079 114.905 34.0639 114.762 34.0187C114.133 33.7803 114.345 32.7601 114.599 31.9357L114.623 31.8493C114.938 30.8966 116.58 29.7794 116.79 29.3393C117 28.8992 116.726 27.3252 116.788 26.3243C116.851 25.3233 119.374 25.4288 120.557 25.1067C121.857 24.6837 122.293 23.6663 122.465 22.6195C122.487 22.4881 122.483 22.3537 122.453 22.2239C122.438 22.1784 122.425 22.1321 122.415 22.0852C122.054 21.0508 120.346 19.7395 119.088 19.63C117.611 19.5002 115.601 18.5425 114.849 17.3643C114.297 16.5264 113.653 15.7527 112.929 15.0578C112.598 14.7012 112.261 14.5588 111.939 14.6465C111.469 14.7745 108.955 17.6341 109.827 19.6463C109.894 19.793 109.956 19.9249 110.012 20.0321C110.328 20.6641 110.524 20.7011 110.712 20.6499C111.084 20.5487 111.265 20.5524 111.52 20.882C111.91 21.5155 112.166 22.2224 112.272 22.9589C112.406 23.589 112.373 24.2433 112.177 24.8568C111.565 26.5178 109.511 27.4121 109.006 26.8848C108.076 25.9096 106.409 26.9377 105.246 25.8291C104.346 24.9678 104.543 24.8292 103.954 24.9897C102.755 25.3159 102.379 25.4183 102.083 25.5415C101.787 25.6647 101.519 25.7375 101.282 25.8022C100.832 25.9545 100.342 25.9426 99.9003 25.7688C99.8407 25.7509 99.7836 25.7254 99.7307 25.6926C99.1007 25.3323 99.4745 24.7519 99.3597 23.7248C99.3346 23.5132 99.2953 23.3036 99.2421 23.0973C99.2113 22.9287 99.1662 22.7631 99.1073 22.6022C98.8376 21.9044 98.5805 22.1712 97.9563 22.0274C97.7642 21.9847 97.5796 21.913 97.4091 21.8147C97.2727 21.7245 97.1196 21.6624 96.9588 21.6322C96.7981 21.602 96.6329 21.6042 96.473 21.6388C96.1519 21.7768 95.8631 21.9804 95.6252 22.2366C95.4811 22.3632 95.3204 22.4695 95.1476 22.5528C94.4 22.7563 94.8522 21.9365 95.3375 20.7301C95.5938 20.1284 95.8024 19.7419 96.1093 19.6583C96.4163 19.5747 96.8442 19.8571 97.5271 20.6072C98.0898 21.2092 98.3711 21.3826 98.6483 21.3071C99.0048 21.2101 99.3674 20.6859 100.342 20.144C102.061 19.1708 102.088 18.7432 102.159 17.889C102.148 17.8494 102.16 17.7769 102.159 17.7135C101.884 16.2535 101.201 14.9014 100.188 13.8146C99.2852 13.0392 96.9799 14.0072 95.0131 14.0108C93.0463 14.0145 93.6536 13.5885 90.1662 11.1715C86.6788 8.75446 87.4903 9.64505 85.5895 8.93402C84.3651 8.48027 80.4973 9.25676 77.175 10.1613C75.6299 10.5651 74.1079 11.0523 72.6155 11.6207C69.9741 12.7015 71.5125 12.4529 69.808 14.7677C68.1035 17.0826 68.1804 16.0565 65.496 17.7021C62.8115 19.3478 63.038 19.1638 62.514 20.5403C62.4216 20.7452 62.3875 20.9717 62.4155 21.1947C62.5291 21.9243 63.6443 22.0355 64.9898 22.6212C65.3124 22.7782 65.6808 22.8139 66.0276 22.7215C66.2972 22.6361 66.5492 22.5027 66.7713 22.3276C66.9426 22.1906 67.1321 22.0782 67.3344 21.9934C67.7136 22.6827 67.6499 23.1521 67.3941 23.4823C66.9145 24.0649 65.7209 24.3101 64.7336 24.8449C63.0236 25.3423 61.7671 22.9933 59.8507 21.9515C59.0709 21.5096 58.6812 21.387 58.4386 21.4531C58.0227 21.5663 58.0161 22.2063 57.244 22.7889C56.0126 23.7357 56.8012 24.6591 55.2873 25.3692C55.1305 25.4399 54.9696 25.5014 54.8057 25.5535C54.3105 25.6883 53.3466 24.3552 52.7986 22.9089C52.505 22.2005 52.3628 21.4385 52.381 20.6719C52.4238 20.3751 52.4258 20.074 52.3873 19.7767C52.3799 19.717 52.364 19.6586 52.3401 19.6034C52.1013 19.1366 51.2744 19.3032 49.1801 18.7406C46.1829 17.9292 48.3263 18.5741 46.2272 17.6618C45.8303 17.4346 45.3682 17.3485 44.9162 17.4178C44.2032 17.6119 43.8284 18.5596 41.187 19.3479C38.5457 20.1361 37.8047 21.4973 37.929 22.2665C37.9363 22.3949 37.9836 22.5177 38.0643 22.6179C38.145 22.718 38.255 22.7903 38.3788 22.8248C39.3575 23.1234 40.3932 23.1842 41.4001 23.0021C41.6315 22.9415 41.8533 22.8489 42.0591 22.7269C42.7736 22.3381 43.5346 22.0416 44.3238 21.8444C45.7102 21.4669 47.177 21.3069 47.4927 21.939C47.6813 22.3149 47.7747 22.7315 47.7644 23.152C47.7801 23.6077 47.9014 24.0535 48.119 24.4542C48.1284 24.4889 48.1392 24.5285 48.1486 24.5631C48.5759 25.3509 48.8616 25.5018 48.4277 25.7051C48.1603 25.8364 47.5936 26.0013 46.6028 26.3668C44.0505 27.3063 44.4588 26.9505 41.9235 28.1088C39.3882 29.2671 40.3755 30.764 38.7604 31.3952C38.6508 31.4348 38.5382 31.4654 38.4237 31.4868C37.4538 31.5382 38.2533 30.0601 38.2513 28.5874C38.2595 28.3285 38.2041 28.0715 38.09 27.8389C37.6615 26.9291 36.3895 27.1212 35.3339 27.366C34.0664 27.7111 34.3002 28.1793 33.4933 30.1381C32.6864 32.0969 30.17 34.3403 29.0234 33.8601C28.1783 33.5104 27.664 33.3792 27.0698 33.541C26.4756 33.7028 25.803 34.1625 24.6672 34.9716C24.2793 35.2591 23.8489 35.484 23.3914 35.6381C22.4011 35.9077 22.3164 35.0107 21.8007 34.933C21.636 34.9141 21.0728 33.2166 19.9753 33.659C18.6113 34.2165 17.1735 35.9482 15.4947 37.2243C13.0509 39.0704 10.3957 40.6283 9.18307 41.937C7.53551 43.6992 3.49892 45.5747 2.07325 47.2924C-0.00354282 49.7831 0.635467 52.0715 -0.946591 54.2893C-1.23571 54.6924 -3.98547 56.3718 -4.25569 56.7857C-8.47139 62.7892 -8.33054 65.9631 -9.04618 67.0461C-10.2333 68.8585 -10.1523 71.0117 -11.2462 71.5648C-11.4415 71.6233 -11.6505 71.6168 -11.8417 71.5461C-12.0157 71.5341 -12.1905 71.5546 -12.357 71.6066C-12.7903 71.7132 -13.1972 71.9072 -13.5527 72.1768C-13.7566 72.3262 -13.9503 72.4891 -14.1326 72.6644C-14.2711 72.8329 -14.4245 72.9886 -14.5909 73.1296C-15.4464 73.8943 -16.0591 74.359 -16.9998 76.5297C-17.9405 78.7004 -18.601 81.3533 -19.9076 83.5864C-20.6683 85.0762 -21.8087 86.3389 -23.2137 87.2468C-24.5035 88.1936 -24.6516 89.388 -24.5476 91.2743C-24.4435 93.1606 -25.3199 94.298 -26.2165 95.5367C-27.1131 96.7753 -28.6636 98.9525 -29.8171 100.889C-30.9705 102.825 -31.9946 107.209 -32.2079 109.336C-32.4213 111.463 -33.4089 111.684 -33.7753 113.874C-34.1106 115.717 -34.5795 117.533 -35.1782 119.309C-35.7298 119.959 -35.6057 120.122 -35.1423 120.612Z" fill="url(#paint0_linear_4208_3887)"/>
<path d="M139.119 120.574C139.51 120.767 139.272 125.627 139.345 126.446C139.419 127.266 141.007 129.898 141.884 130.466C142.761 131.034 145.339 129.896 145.842 130.091C146.344 130.286 147.599 130.835 147.828 131.795C147.999 132.853 148.06 133.927 148.01 134.998C148.024 135.645 149.073 136.01 150.213 136.948C151.354 137.887 151.777 140.303 152.41 140.716C152.535 140.786 152.673 140.83 152.816 140.842C152.958 140.855 153.102 140.837 153.237 140.79C153.885 140.614 154.055 140.567 154.186 140.668C154.568 140.948 154.55 142.742 154.809 143.192C155.068 143.642 155.536 143.476 156.33 143.429C157.124 143.382 156.838 144.026 157.228 144.336C157.577 144.583 157.984 144.736 158.41 144.782C158.584 144.799 158.623 145.563 158.664 146.385C158.706 147.206 160.301 149.53 159.886 150.229C159.471 150.927 158.955 151.588 159.194 152.323C159.442 153.402 159.316 154.532 158.838 155.53C158.351 156.418 156.451 156.584 155.807 157.208C155.164 157.832 155.232 157.748 156.794 157.941C157.288 158.011 157.791 157.983 158.274 157.857C159.171 157.545 159.968 157 160.584 156.278C160.872 155.926 161.247 155.656 161.671 155.494C162.406 155.398 162.518 155.355 162.662 155.263C163.54 154.758 163.744 153.668 165.108 152.106C166.472 150.544 166.049 150.639 166.202 150.032C166.355 149.424 165.498 148.115 166.211 147.004C166.666 146.344 167.081 145.658 167.453 144.948C167.978 144.031 167.952 143.771 168.102 141.909C168.252 140.046 167.909 139.359 168.296 137.028C168.683 134.698 169.117 135.504 169.437 134.05C169.757 132.597 168.885 127.603 169.342 125.553C169.799 123.503 169.684 122.89 170.822 121.669C171.96 120.449 176.888 117.663 177.312 117.164C177.735 116.664 178.503 113.632 178.729 112.666C178.954 111.7 182.375 108.518 182.647 108.275C182.919 108.031 182.234 107.261 182.045 105.875C181.857 104.488 182.762 104.658 183.467 104.284C184.171 103.91 183.648 101.893 183.28 100.659C182.912 99.4258 180.3 99.7985 179.829 98.1179C179.61 97.409 179.566 96.6573 179.702 95.9277C179.77 95.5741 179.92 95.2414 180.14 94.9561C180.714 94.9618 181.276 95.121 181.768 95.4171C182.58 95.8403 183.427 96.1931 184.3 96.4714C184.615 96.5409 184.944 96.5299 185.254 96.4393C185.399 96.3998 185.569 96.3536 185.73 96.2771C185.892 96.2007 186.11 96.1413 186.328 96.0819C186.677 95.9869 187.033 95.9204 187.393 95.8831C189.077 95.7368 193.348 97.2544 194.191 97.2201C194.214 97.2188 194.237 97.2127 194.258 97.2019C194.737 96.9544 194.32 95.2331 194.585 94.224C194.851 93.2149 195.926 92.8377 196.678 92.3529C197.827 92.0077 199.852 92.5624 201.343 92.2085C203.009 91.755 204.067 90.2634 204.799 90.038C205.531 89.8125 208.057 91.3954 208.961 91.5852C209.648 91.7171 212.573 91.3242 214.517 90.7948C215.078 90.6821 215.616 90.472 216.104 90.1739C216.864 89.5961 216.984 87.5987 217.207 86.3605C217.246 86.0303 217.351 85.7115 217.518 85.4236C218.054 84.7636 220.363 84.4536 220.883 84.091C221.402 83.7283 222.129 82.6 223.031 81.3005C223.933 80.0009 224.573 79.7942 225.06 79.6485C225.548 79.5028 225.384 80.289 224.694 81.4333C224.004 82.5777 222.118 84.0866 221.493 84.8747C221.388 84.9988 221.307 85.1422 221.257 85.2969C220.983 86.1067 221.303 87.2361 221.612 87.1519C223.375 86.2675 225.026 85.1758 226.53 83.9001C226.812 83.6561 227.069 83.3856 227.299 83.0922C228.662 81.3354 228.658 78.5258 229.895 77.1416C230.132 76.8707 230.442 76.6735 230.788 76.5732C231.115 76.5045 231.45 76.4877 231.783 76.5236C232.121 76.5667 232.464 76.5482 232.796 76.469C233.132 76.3793 233.439 76.2015 233.683 75.954C235.138 74.6277 235.789 71.0476 236.49 70.3233C237.191 69.5991 236.766 68.947 235.572 66.2597C234.379 63.5723 234.706 57.1984 235.603 53.7792C236.5 50.3599 238.129 50.4889 240.058 47.9664C241.987 45.444 241.617 43.3456 242.429 43.1246C243.364 42.9741 248.68 44.9359 252.052 46.6398C255.424 48.3436 253.609 49.9698 255.63 53.4729C257.651 56.976 258.474 58.4954 259.754 60.8078C260.11 61.4905 260.614 62.0847 261.23 62.5467C261.512 62.7878 261.842 62.9666 262.197 63.0715C262.553 63.1764 262.927 63.205 263.295 63.1554C263.941 62.7323 263.987 61.9455 263.449 60.7582C263.247 60.3156 263.013 59.8879 262.75 59.4784C261.528 57.547 261.932 57.2873 263.061 55.6267C263.296 55.2149 263.674 54.9036 264.124 54.7517C264.271 54.7152 264.424 54.7023 264.575 54.7134C264.701 54.718 264.827 54.7077 264.951 54.6827C265.054 54.6492 265.148 54.5912 265.224 54.5139C265.3 54.4365 265.357 54.3419 265.389 54.238C265.909 53.1597 264.155 50.3972 262.627 49.1346C261.099 47.872 260.785 47.1506 261.061 45.9631C261.336 44.7757 261.861 45.5825 262.011 44.2926C262.161 43.0026 259.731 42.1289 258.637 41.6263C257.544 41.1237 258.37 39.0445 258.478 38.0067C258.586 36.9689 256.522 35.9368 256.414 35.8492C254.203 35.8785 253.431 32.0616 250.507 31.023C247.582 29.9845 248.348 28.735 245.743 26.5492C243.137 24.3634 244.143 24.9287 241.335 23.67C240.174 23.1596 239.828 23.0587 239.622 23.1148C239.402 23.2577 239.163 23.3688 238.912 23.4448C238.445 23.5517 237.966 23.5925 237.487 23.5659C234.427 23.5078 235.771 22.6605 232.186 22.0165C229.456 21.5495 228.766 20.9959 226.035 20.1908C225.148 19.9185 224.037 19.6157 222.533 19.277C221.543 19.0643 220.565 18.7985 219.604 18.4807C217.004 17.5816 217.682 16.8959 216.061 15.1707C213.97 12.962 213.168 13.4341 209.851 11.3377C206.535 9.24128 204.871 4.27489 204.147 4.27017C203.681 4.27988 196.032 1.84742 190.277 0.115563C186.911 -0.91988 184.211 -1.68746 183.957 -1.59232C183.703 -1.49718 179.071 -2.40269 178.591 -2.44749C176.77 -2.56335 174.85 -3.0685 174.074 -2.85741C173.49 -1.89801 174.906 -1.37931 174.51 -0.0156939C174.409 0.246944 174.24 0.477672 174.02 0.652184C173.799 0.826696 173.536 0.938524 173.257 0.975901C172.264 1.16205 171.256 1.25799 170.245 1.26256C169.18 1.36395 170.58 -1.3531 170.719 -3.30374C170.729 -3.41016 170.713 -3.51732 170.673 -3.61648C170.319 -4.60658 168.024 -5.05519 167.668 -5.09499C166.548 -5.21935 164.183 -6.332 163.335 -5.21634C162.998 -4.80576 163.027 -4.57946 162.663 -4.48051C161.827 -4.25293 160.817 -4.59583 159.369 -4.29914C157.92 -4.00246 156.21 -4.42824 155.054 -4.11325C154.655 -4.01615 154.3 -3.78907 154.045 -3.46786C152.998 -2.10288 154.871 -1.31806 154.395 -0.654814C153.918 0.00842881 152.4 0.382725 150.825 1.88512C149.249 3.38752 148.402 3.93057 147.68 5.14869C146.957 6.3668 144.968 6.66106 144.142 8.16763C143.316 9.67421 144.449 9.29425 145.315 10.0864C145.505 10.2517 145.735 10.3636 145.982 10.4106C146.23 10.4577 146.485 10.4381 146.722 10.354C147.122 10.2452 148.313 11.2742 149.313 12.4396C149.957 13.1093 150.45 13.9091 150.759 14.7852C151.066 16.224 151.304 16.9789 153.036 16.891C154.045 16.873 155.045 16.7038 156.003 16.3891C157.493 16.0291 157.786 15.9361 158.487 17.0987C159.187 18.2613 160.375 20.4493 160.224 21.089C160.147 21.3571 159.801 21.5683 159.317 21.7003C158.555 21.8815 157.765 21.9109 156.991 21.7868C155.548 21.5291 155.239 19.102 154.013 18.8047C153.757 18.743 153.489 18.7444 153.233 18.8087C152.488 19.0116 152.011 19.7921 151.377 20.3551C150.557 21.0925 151.042 21.5133 151.909 22.5004C152.777 23.4874 153.68 23.6513 153.132 24.7698C153.036 24.9344 152.904 25.0757 152.747 25.1838C152.59 25.2918 152.411 25.3639 152.222 25.3949C151.812 25.4897 151.397 25.5594 150.978 25.6036C150.489 25.6469 150.005 25.7288 149.529 25.8485C149.186 25.9387 148.858 26.0784 148.555 26.2632C146.943 27.2227 148.986 29.3989 148.881 31.093C148.776 32.7871 147.586 34.4383 147.947 36.3116C148.307 38.1848 148.655 37.8364 150.276 38.6052C151.268 39.0703 152.974 38.9571 154.331 38.5877C155 38.4627 155.621 38.1539 156.125 37.696C156.771 36.8693 156.88 36.8396 155.886 35.7699C154.893 34.7003 154.322 33.704 154.726 33.3469C155.331 33.182 156.261 34.0154 157.633 34.9432C158.091 35.2394 158.612 35.4239 159.154 35.4819C159.697 35.5399 160.245 35.4697 160.755 35.2771C162.573 34.7823 162.603 35.9452 162.336 37.0457C162.07 38.1461 160.588 38.6537 159.52 39.4846C158.451 40.3155 158.24 40.6138 158.638 41.0258C159.539 41.7601 160.505 42.4117 161.523 42.9728C162.375 43.4992 163.296 43.9054 164.259 44.1798C164.637 44.2529 165.027 44.238 165.399 44.1362C165.569 44.0901 165.726 44.0472 165.884 44.0043C166.032 43.9411 166.185 43.8865 166.34 43.841C166.656 43.7587 166.986 43.7478 167.307 43.8091C167.627 43.8704 167.93 44.0023 168.193 44.1953C170.068 45.2983 171.309 44.2902 172.146 45.0707C172.891 45.7725 173.063 47.0268 174.295 48.8514C174.472 49.0959 174.643 49.3421 174.853 49.6103C176.596 51.8294 179.788 52.873 180.535 53.3721C181.283 53.8713 180.768 55.9957 180.623 57.1348C180.478 58.2739 180.942 58.4729 181.917 58.8058C182.003 58.8348 182.087 58.8708 182.168 58.9133C183.059 59.3211 183.997 60.4711 185.01 61.4445C185.827 62.4285 186.55 63.4861 187.172 64.6035C187.951 65.9137 188.632 67.1467 188.788 67.2668C189.082 67.5119 189.046 67.7366 188.831 68.9532C188.616 70.1699 188.101 71.5528 188.739 72.8232C188.874 73.226 189.162 73.5597 189.541 73.7523C189.919 73.945 190.358 73.9812 190.763 73.8531C191.024 73.7771 191.274 73.6696 191.509 73.533C192.641 72.9124 191.774 72.5239 191.922 70.7467C192.043 69.2822 192.494 68.8343 193.378 68.5935C193.596 68.5341 193.826 68.4714 194.091 68.4385C195.447 68.2123 195.036 69.3524 195.448 70.4372C195.861 71.522 196.481 71.4573 199.079 70.8214C201.677 70.1855 200.847 70.9124 202.754 72.0133C204.661 73.1142 205.274 76.2263 205.556 78.121C205.837 80.0157 204.896 81.983 204.192 83.58C204.075 83.8891 203.882 84.1643 203.633 84.381C203.383 84.5978 203.083 84.7493 202.761 84.822C202.088 85.0051 201.236 85.003 200.221 85.1947C198.267 85.5705 199.08 83.9439 197.995 81.201C197.456 79.8447 197.237 79.6376 196.941 79.7184C196.427 79.9984 195.831 80.0869 195.258 79.9682C193.351 79.4856 193.335 78.7092 192.359 77.9209C191.383 77.1326 190.036 76.9658 189.67 76.0506C189.384 75.3088 188.313 75.2489 187.496 75.4715C187.292 75.5255 187.094 75.6011 186.906 75.697C186.638 75.8224 186.357 75.9205 186.069 75.9901L184.857 76.3199C184.421 76.4387 183.955 76.5656 183.476 76.6959C182.599 76.9205 181.742 77.219 180.915 77.5884C179.816 78.1262 178.668 78.5606 177.488 78.8857C176.715 79.1265 175.911 79.2555 175.101 79.269C174.46 79.2186 173.815 79.2669 173.188 79.4124C172.958 79.453 172.741 79.5459 172.553 79.6839C172.365 79.822 172.211 80.0016 172.104 80.2087C171.812 81.0493 172.923 81.1373 174.602 81.2591C176.281 81.381 177.049 82.2193 178.472 82.0206C179.895 81.8219 180.074 82.8857 180.904 83.5446C181.231 83.7747 181.603 83.9324 181.996 84.0072C182.389 84.082 182.793 84.0721 183.182 83.9783C183.679 83.7258 184.261 82.4939 183.72 81.7955C183.178 81.0971 182.789 80.0971 184.113 79.4634C185.351 78.8726 186.357 78.1496 187.732 77.7752C189.503 77.3713 188.854 78.6671 189.933 78.9264C190.857 79.1753 191.731 79.5849 192.513 80.1365C193.123 80.5365 193.667 82.3922 194.191 83.9087C194.714 85.4253 194.736 86.4146 194.253 86.8131C193.532 86.9025 192.802 86.8588 192.097 86.6844C191.298 86.5195 190.477 86.4944 189.669 86.6101C189.519 86.6412 189.379 86.7084 189.261 86.8059C188.422 87.6199 188.78 90.346 188.483 91.572C188.38 92.007 188.163 92.4068 187.854 92.7299C187.545 93.0531 187.156 93.2879 186.726 93.4101C186.395 93.5328 186.018 93.6549 185.57 93.7769C183.674 94.2931 180.826 92.6742 179.83 92.2884C178.833 91.9026 178.882 89.4756 178.037 89.1201C177.614 88.9295 176.787 88.3543 175.92 87.8226C175.9 87.8077 175.877 87.7963 175.853 87.789C175.419 87.5202 174.964 87.2872 174.492 87.0925C174.204 86.9515 173.889 86.871 173.569 86.8559C172.157 86.97 170.762 87.2427 169.411 87.6689C168.291 87.974 167.088 88.3341 165.915 88.7119C162.879 89.7208 162.708 89.8127 161.553 90.7322C160.398 91.6518 158.464 94.2475 157.748 94.6766C157.593 94.769 157.426 94.8386 157.251 94.8834C156.963 94.9526 156.67 95.0039 156.376 95.0372C155.96 95.0968 155.548 95.1807 155.143 95.2883C154.912 95.3509 154.688 95.4119 154.436 95.5131C152.742 96.1241 152.25 96.3232 150.923 98.4539C149.923 100.086 148.877 102.505 147.871 103.969C147.643 104.351 147.357 104.695 147.022 104.988C145.822 105.932 142.693 107.032 141.171 107.68C139.86 108.325 138.713 109.261 137.817 110.415C137.712 110.545 137.569 110.638 137.408 110.682C137.028 110.731 136.643 110.647 136.316 110.446C135.985 110.252 135.6 110.17 135.218 110.212C134.825 110.536 134.528 110.961 134.359 111.441C134.191 111.922 134.157 112.44 134.262 112.938C134.353 113.414 134.449 116.732 135.163 117.13C135.876 117.528 138.707 120.4 139.119 120.574Z" fill="url(#paint1_linear_4208_3887)"/>
</g>

</g>
<defs>
<linearGradient id="paint0_linear_4208_3887" x1="30.6454" y1="13.1341" x2="64.2689" y2="136.631" gradientUnits="userSpaceOnUse">
<stop stop-color="#0774A3"/>
<stop offset="1" stop-color="#7BD8FF"/>
</linearGradient>
<linearGradient id="paint1_linear_4208_3887" x1="167.85" y1="-33.2961" x2="208.982" y2="117.78" gradientUnits="userSpaceOnUse">
<stop stop-color="#0774A3"/>
<stop offset="1" stop-color="#93DFFF"/>
</linearGradient>
<clipPath id="clip0_4208_3887">
<rect x="0.5" width="250" height="150" rx="16" fill="white"/>
</clipPath>
</defs>
</svg>
